{
    "accessors" : [
        {
            "bufferView" : 0,
            "componentType" : 5121,
            "count" : 222,
            "max" : [
                115
            ],
            "min" : [
                0
            ],
            "type" : "SCALAR"
        },
        {
            "bufferView" : 1,
            "componentType" : 5126,
            "count" : 116,
            "max" : [
                1.0,
                1.0,
                1.0
            ],
            "min" : [
                -1.0,
                -1.0,
                -0.055267464369535446
            ],
            "type" : "VEC3"
        },
        {
            "bufferView" : 2,
            "componentType" : 5126,
            "count" : 116,
            "max" : [
                0.9951848387718201,
                1.0,
                0.9951847195625305
            ],
            "min" : [
                -0.9951847791671753,
                -1.0,
                -1.0
            ],
            "type" : "VEC3"
        },
        {
            "bufferView" : 3,
            "componentType" : 5126,
            "count" : 116,
            "max" : [
                1.67638099193573,
                1.6775681972503662
            ],
            "min" : [
                -0.6767956018447876,
                -0.6775681972503662
            ],
            "type" : "VEC2"
        },
        {
            "bufferView" : 4,
            "componentType" : 5121,
            "count" : 36,
            "max" : [
                23
            ],
            "min" : [
                0
            ],
            "type" : "SCALAR"
        },
        {
            "bufferView" : 5,
            "componentType" : 5126,
            "count" : 24,
            "max" : [
                1.0,
                1.0,
                1.0
            ],
            "min" : [
                -1.0,
                -1.0,
                -1.0
            ],
            "type" : "VEC3"
        },
        {
            "bufferView" : 6,
            "componentType" : 5126,
            "count" : 24,
            "max" : [
                1.0,
                1.0,
                1.0
            ],
            "min" : [
                -1.0,
                -1.0,
                -1.0
            ],
            "type" : "VEC3"
        },
        {
            "bufferView" : 7,
            "componentType" : 5126,
            "count" : 24,
            "max" : [
                0.0,
                0.0,
                1.3411047916633834e-07,
                1.0
            ],
            "min" : [
                -1.0,
                -1.0,
                -1.0,
                1.0
            ],
            "type" : "VEC4"
        },
        {
            "bufferView" : 8,
            "componentType" : 5126,
            "count" : 24,
            "max" : [
                1.0,
                1.0
            ],
            "min" : [
                0.0,
                5.960464477539063e-08
            ],
            "type" : "VEC2"
        },
        {
            "bufferView" : 9,
            "componentType" : 5121,
            "count" : 6,
            "max" : [
                3
            ],
            "min" : [
                0
            ],
            "type" : "SCALAR"
        },
        {
            "bufferView" : 10,
            "componentType" : 5126,
            "count" : 4,
            "max" : [
                1.0,
                0.0,
                1.0
            ],
            "min" : [
                -1.0,
                0.0,
                -1.0
            ],
            "type" : "VEC3"
        },
        {
            "bufferView" : 11,
            "componentType" : 5126,
            "count" : 4,
            "max" : [
                0.0,
                1.0,
                -0.0
            ],
            "min" : [
                0.0,
                1.0,
                -0.0
            ],
            "type" : "VEC3"
        },
        {
            "bufferView" : 12,
            "componentType" : 5121,
            "count" : 36,
            "max" : [
                23
            ],
            "min" : [
                0
            ],
            "type" : "SCALAR"
        },
        {
            "bufferView" : 13,
            "componentType" : 5126,
            "count" : 24,
            "max" : [
                1.0,
                1.0,
                1.0
            ],
            "min" : [
                -1.0,
                -1.0,
                -1.0
            ],
            "type" : "VEC3"
        },
        {
            "bufferView" : 14,
            "componentType" : 5126,
            "count" : 24,
            "max" : [
                1.0,
                1.0,
                1.0
            ],
            "min" : [
                -1.0,
                -1.0,
                -1.0
            ],
            "type" : "VEC3"
        },
        {
            "bufferView" : 15,
            "componentType" : 5126,
            "count" : 24,
            "max" : [
                0.0,
                0.0,
                1.3411047916633834e-07,
                1.0
            ],
            "min" : [
                -1.0,
                -1.0,
                -1.0,
                1.0
            ],
            "type" : "VEC4"
        },
        {
            "bufferView" : 16,
            "componentType" : 5126,
            "count" : 24,
            "max" : [
                1.0,
                1.0
            ],
            "min" : [
                0.0,
                5.960464477539063e-08
            ],
            "type" : "VEC2"
        },
        {
            "bufferView" : 17,
            "componentType" : 5121,
            "count" : 36,
            "max" : [
                23
            ],
            "min" : [
                0
            ],
            "type" : "SCALAR"
        },
        {
            "bufferView" : 18,
            "componentType" : 5126,
            "count" : 24,
            "max" : [
                1.0,
                1.0,
                1.0
            ],
            "min" : [
                -1.0,
                -1.0,
                -1.0
            ],
            "type" : "VEC3"
        },
        {
            "bufferView" : 19,
            "componentType" : 5126,
            "count" : 24,
            "max" : [
                1.0,
                1.0,
                1.0
            ],
            "min" : [
                -1.0,
                -1.0,
                -1.0
            ],
            "type" : "VEC3"
        },
        {
            "bufferView" : 20,
            "componentType" : 5126,
            "count" : 24,
            "max" : [
                0.0,
                0.0,
                1.3411047916633834e-07,
                1.0
            ],
            "min" : [
                -1.0,
                -1.0,
                -1.0,
                1.0
            ],
            "type" : "VEC4"
        },
        {
            "bufferView" : 21,
            "componentType" : 5126,
            "count" : 24,
            "max" : [
                1.0,
                1.0
            ],
            "min" : [
                0.0,
                5.960464477539063e-08
            ],
            "type" : "VEC2"
        }
    ],
    "asset" : {
        "generator" : "Khronos Blender glTF 2.0 exporter",
        "version" : "2.0"
    },
    "bufferViews" : [
        {
            "buffer" : 0,
            "byteLength" : 222,
            "byteOffset" : 0,
            "target" : 34963
        },
        {
            "buffer" : 0,
            "byteLength" : 1392,
            "byteOffset" : 224,
            "target" : 34962
        },
        {
            "buffer" : 0,
            "byteLength" : 1392,
            "byteOffset" : 1616,
            "target" : 34962
        },
        {
            "buffer" : 0,
            "byteLength" : 928,
            "byteOffset" : 3008,
            "target" : 34962
        },
        {
            "buffer" : 0,
            "byteLength" : 36,
            "byteOffset" : 3936,
            "target" : 34963
        },
        {
            "buffer" : 0,
            "byteLength" : 288,
            "byteOffset" : 3972,
            "target" : 34962
        },
        {
            "buffer" : 0,
            "byteLength" : 288,
            "byteOffset" : 4260,
            "target" : 34962
        },
        {
            "buffer" : 0,
            "byteLength" : 384,
            "byteOffset" : 4548,
            "target" : 34962
        },
        {
            "buffer" : 0,
            "byteLength" : 192,
            "byteOffset" : 4932,
            "target" : 34962
        },
        {
            "buffer" : 0,
            "byteLength" : 6,
            "byteOffset" : 5124,
            "target" : 34963
        },
        {
            "buffer" : 0,
            "byteLength" : 48,
            "byteOffset" : 5132,
            "target" : 34962
        },
        {
            "buffer" : 0,
            "byteLength" : 48,
            "byteOffset" : 5180,
            "target" : 34962
        },
        {
            "buffer" : 0,
            "byteLength" : 36,
            "byteOffset" : 5228,
            "target" : 34963
        },
        {
            "buffer" : 0,
            "byteLength" : 288,
            "byteOffset" : 5264,
            "target" : 34962
        },
        {
            "buffer" : 0,
            "byteLength" : 288,
            "byteOffset" : 5552,
            "target" : 34962
        },
        {
            "buffer" : 0,
            "byteLength" : 384,
            "byteOffset" : 5840,
            "target" : 34962
        },
        {
            "buffer" : 0,
            "byteLength" : 192,
            "byteOffset" : 6224,
            "target" : 34962
        },
        {
            "buffer" : 0,
            "byteLength" : 36,
            "byteOffset" : 6416,
            "target" : 34963
        },
        {
            "buffer" : 0,
            "byteLength" : 288,
            "byteOffset" : 6452,
            "target" : 34962
        },
        {
            "buffer" : 0,
            "byteLength" : 288,
            "byteOffset" : 6740,
            "target" : 34962
        },
        {
            "buffer" : 0,
            "byteLength" : 384,
            "byteOffset" : 7028,
            "target" : 34962
        },
        {
            "buffer" : 0,
            "byteLength" : 192,
            "byteOffset" : 7412,
            "target" : 34962
        }
    ],
    "buffers" : [
        {
            "byteLength" : 7604,
            "uri" : "tablefortwo.bin"
        }
    ],
    "images" : [
        {
            "name" : "woodenfloor",
            "uri" : "woodenfloor.jpg"
        }
    ],
    "materials" : [
        {
            "name" : "Material.002",
            "pbrMetallicRoughness" : {
                "baseColorFactor" : [
                    0.35209622979164124,
                    0.24046021699905396,
                    0.06495009362697601,
                    1.0
                ],
                "baseColorTexture" : {
                    "index" : 0
                },
                "metallicFactor" : 0.0,
                "roughnessFactor" : 0.47272729873657227
            }
        }
    ],
    "meshes" : [
        {
            "name" : "Cylinder",
            "primitives" : [
                {
                    "attributes" : {
                        "NORMAL" : 2,
                        "POSITION" : 1,
                        "TEXCOORD_0" : 3
                    },
                    "indices" : 0,
                    "material" : 0
                }
            ]
        },
        {
            "name" : "Cube.003",
            "primitives" : [
                {
                    "attributes" : {
                        "NORMAL" : 6,
                        "POSITION" : 5,
                        "TANGENT" : 7,
                        "TEXCOORD_0" : 8
                    },
                    "indices" : 4,
                    "material" : 0
                }
            ]
        },
        {
            "name" : "Plane",
            "primitives" : [
                {
                    "attributes" : {
                        "NORMAL" : 11,
                        "POSITION" : 10
                    },
                    "indices" : 9
                }
            ]
        },
        {
            "name" : "Cube.002",
            "primitives" : [
                {
                    "attributes" : {
                        "NORMAL" : 14,
                        "POSITION" : 13,
                        "TANGENT" : 15,
                        "TEXCOORD_0" : 16
                    },
                    "indices" : 12,
                    "material" : 0
                }
            ]
        },
        {
            "name" : "Cube.004",
            "primitives" : [
                {
                    "attributes" : {
                        "NORMAL" : 19,
                        "POSITION" : 18,
                        "TANGENT" : 20,
                        "TEXCOORD_0" : 21
                    },
                    "indices" : 17,
                    "material" : 0
                }
            ]
        }
    ],
    "nodes" : [
        {
            "mesh" : 3,
            "name" : "Cube.001",
            "scale" : [
                0.41545265913009644,
                0.036378536373376846,
                0.41545265913009644
            ],
            "translation" : [
                -1.0357834100723267,
                0.7451146841049194,
                0.19773516058921814
            ]
        },
        {
            "mesh" : 1,
            "name" : "Cube.002",
            "scale" : [
                0.04007544741034508,
                0.38826948404312134,
                0.04007544741034508
            ],
            "translation" : [
                -0.6759417057037354,
                0.3718631863594055,
                -0.1508411020040512
            ]
        },
        {
            "mesh" : 1,
            "name" : "Cube.003",
            "scale" : [
                0.04007544741034508,
                0.7464117407798767,
                0.04007544741034508
            ],
            "translation" : [
                -1.4288218021392822,
                0.7349634170532227,
                -0.1508411020040512
            ]
        },
        {
            "mesh" : 1,
            "name" : "Cube.004",
            "scale" : [
                0.04007544741034508,
                0.7464117407798767,
                0.04007544741034508
            ],
            "translation" : [
                -1.4288218021392822,
                0.7349634170532227,
                0.5463115572929382
            ]
        },
        {
            "mesh" : 1,
            "name" : "Cube.005",
            "scale" : [
                0.04007544741034508,
                0.38826948404312134,
                0.04007544741034508
            ],
            "translation" : [
                -0.6759417057037354,
                0.3718631863594055,
                0.5463115572929382
            ]
        },
        {
            "mesh" : 4,
            "name" : "Cube.006",
            "scale" : [
                0.044547926634550095,
                0.25166457891464233,
                0.44306710362434387
            ],
            "translation" : [
                -1.4020434617996216,
                1.2854702472686768,
                0.19773516058921814
            ]
        },
        {
            "mesh" : 4,
            "name" : "Cube.007",
            "rotation" : [
                0.0,
                1.0,
                -0.0,
                -1.6292068494294654e-07
            ],
            "scale" : [
                0.044547926634550095,
                0.25166457891464233,
                0.44306710362434387
            ],
            "translation" : [
                1.4182720184326172,
                1.2854702472686768,
                0.1977352350950241
            ]
        },
        {
            "mesh" : 1,
            "name" : "Cube.008",
            "rotation" : [
                0.0,
                1.0,
                -0.0,
                -1.6292068494294654e-07
            ],
            "scale" : [
                0.04007544741034508,
                0.38826948404312134,
                0.04007544741034508
            ],
            "translation" : [
                0.692170262336731,
                0.3718631863594055,
                -0.15084116160869598
            ]
        },
        {
            "mesh" : 1,
            "name" : "Cube.009",
            "rotation" : [
                0.0,
                1.0,
                -0.0,
                -1.6292068494294654e-07
            ],
            "scale" : [
                0.04007544741034508,
                0.7464117407798767,
                0.04007544741034508
            ],
            "translation" : [
                1.4450502395629883,
                0.7349634170532227,
                -0.15084116160869598
            ]
        },
        {
            "mesh" : 1,
            "name" : "Cube.010",
            "rotation" : [
                0.0,
                1.0,
                -0.0,
                -1.6292068494294654e-07
            ],
            "scale" : [
                0.04007544741034508,
                0.7464117407798767,
                0.04007544741034508
            ],
            "translation" : [
                1.4450502395629883,
                0.7349634170532227,
                0.5463114380836487
            ]
        },
        {
            "mesh" : 1,
            "name" : "Cube.011",
            "rotation" : [
                0.0,
                1.0,
                -0.0,
                -1.6292068494294654e-07
            ],
            "scale" : [
                0.04007544741034508,
                0.38826948404312134,
                0.04007544741034508
            ],
            "translation" : [
                0.692170262336731,
                0.3718631863594055,
                0.5463114380836487
            ]
        },
        {
            "mesh" : 3,
            "name" : "Cube.012",
            "rotation" : [
                0.0,
                1.0,
                -0.0,
                -1.6292068494294654e-07
            ],
            "scale" : [
                0.41545265913009644,
                0.036378536373376846,
                0.41545265913009644
            ],
            "translation" : [
                1.0520119667053223,
                0.7451146841049194,
                0.1977352648973465
            ]
        },
        {
            "mesh" : 0,
            "name" : "Cylinder",
            "scale" : [
                0.9201790690422058,
                0.038929253816604614,
                1.6917709112167358
            ],
            "translation" : [
                -0.017634589225053787,
                1.4544486999511719,
                -0.6766290664672852
            ]
        },
        {
            "mesh" : 2,
            "name" : "snap",
            "rotation" : [
                -0.7071068286895752,
                0.0,
                -0.0,
                0.7071068286895752
            ],
            "scale" : [
                0.6500001549720764,
                0.6500001549720764,
                0.6500001549720764
            ],
            "translation" : [
                0.014443431049585342,
                0.6673409938812256,
                -0.7704391479492188
            ]
        }
    ],
    "samplers" : [
        {}
    ],
    "scene" : 0,
    "scenes" : [
        {
            "name" : "Scene",
            "nodes" : [
                13,
                11,
                10,
                9,
                8,
                7,
                6,
                5,
                4,
                3,
                2,
                1,
                0,
                12
            ]
        }
    ],
    "textures" : [
        {
            "sampler" : 0,
            "source" : 0
        }
    ]
}
