{
    "accessors" : [
        {
            "bufferView" : 0,
            "componentType" : 5121,
            "count" : 84,
            "max" : [
                49
            ],
            "min" : [
                0
            ],
            "type" : "SCALAR"
        },
        {
            "bufferView" : 1,
            "componentType" : 5126,
            "count" : 50,
            "max" : [
                12.508262634277344,
                1.0,
                1.0000005960464478
            ],
            "min" : [
                -1.0000003576278687,
                -1.0,
                -1.0000003576278687
            ],
            "type" : "VEC3"
        },
        {
            "bufferView" : 2,
            "componentType" : 5126,
            "count" : 50,
            "max" : [
                1.0,
                1.0,
                1.0
            ],
            "min" : [
                -1.0,
                -1.0,
                -1.0
            ],
            "type" : "VEC3"
        },
        {
            "bufferView" : 3,
            "componentType" : 5121,
            "count" : 84,
            "max" : [
                47
            ],
            "min" : [
                0
            ],
            "type" : "SCALAR"
        },
        {
            "bufferView" : 4,
            "componentType" : 5126,
            "count" : 48,
            "max" : [
                6.707764625549316,
                1.0,
                1.0000005960464478
            ],
            "min" : [
                -6.800498008728027,
                -1.0,
                -1.0000003576278687
            ],
            "type" : "VEC3"
        },
        {
            "bufferView" : 5,
            "componentType" : 5126,
            "count" : 48,
            "max" : [
                1.0,
                1.0,
                1.0
            ],
            "min" : [
                -1.0,
                -1.0,
                -1.0
            ],
            "type" : "VEC3"
        },
        {
            "bufferView" : 6,
            "componentType" : 5121,
            "count" : 36,
            "max" : [
                23
            ],
            "min" : [
                0
            ],
            "type" : "SCALAR"
        },
        {
            "bufferView" : 7,
            "componentType" : 5126,
            "count" : 24,
            "max" : [
                1.0000004768371582,
                1.0,
                1.0000005960464478
            ],
            "min" : [
                -1.0000003576278687,
                -1.0,
                -1.0000003576278687
            ],
            "type" : "VEC3"
        },
        {
            "bufferView" : 8,
            "componentType" : 5126,
            "count" : 24,
            "max" : [
                1.0,
                1.0,
                1.0
            ],
            "min" : [
                -1.0,
                -1.0,
                -1.0
            ],
            "type" : "VEC3"
        },
        {
            "bufferView" : 9,
            "componentType" : 5121,
            "count" : 84,
            "max" : [
                51
            ],
            "min" : [
                0
            ],
            "type" : "SCALAR"
        },
        {
            "bufferView" : 10,
            "componentType" : 5126,
            "count" : 52,
            "max" : [
                1.0000004768371582,
                1.0,
                1.0000005960464478
            ],
            "min" : [
                -7.9655256271362305,
                -1.0,
                -1.0000003576278687
            ],
            "type" : "VEC3"
        },
        {
            "bufferView" : 11,
            "componentType" : 5126,
            "count" : 52,
            "max" : [
                1.0,
                1.0,
                1.0
            ],
            "min" : [
                -1.0,
                -1.0,
                -1.0
            ],
            "type" : "VEC3"
        },
        {
            "bufferView" : 12,
            "componentType" : 5121,
            "count" : 6,
            "max" : [
                3
            ],
            "min" : [
                0
            ],
            "type" : "SCALAR"
        },
        {
            "bufferView" : 13,
            "componentType" : 5126,
            "count" : 4,
            "max" : [
                1.0,
                0.0,
                1.0
            ],
            "min" : [
                -1.0,
                0.0,
                -1.0
            ],
            "type" : "VEC3"
        },
        {
            "bufferView" : 14,
            "componentType" : 5126,
            "count" : 4,
            "max" : [
                0.0,
                1.0,
                -0.0
            ],
            "min" : [
                0.0,
                1.0,
                -0.0
            ],
            "type" : "VEC3"
        }
    ],
    "asset" : {
        "generator" : "Khronos Blender glTF 2.0 exporter",
        "version" : "2.0"
    },
    "bufferViews" : [
        {
            "buffer" : 0,
            "byteLength" : 84,
            "byteOffset" : 0,
            "target" : 34963
        },
        {
            "buffer" : 0,
            "byteLength" : 600,
            "byteOffset" : 84,
            "target" : 34962
        },
        {
            "buffer" : 0,
            "byteLength" : 600,
            "byteOffset" : 684,
            "target" : 34962
        },
        {
            "buffer" : 0,
            "byteLength" : 84,
            "byteOffset" : 1284,
            "target" : 34963
        },
        {
            "buffer" : 0,
            "byteLength" : 576,
            "byteOffset" : 1368,
            "target" : 34962
        },
        {
            "buffer" : 0,
            "byteLength" : 576,
            "byteOffset" : 1944,
            "target" : 34962
        },
        {
            "buffer" : 0,
            "byteLength" : 36,
            "byteOffset" : 2520,
            "target" : 34963
        },
        {
            "buffer" : 0,
            "byteLength" : 288,
            "byteOffset" : 2556,
            "target" : 34962
        },
        {
            "buffer" : 0,
            "byteLength" : 288,
            "byteOffset" : 2844,
            "target" : 34962
        },
        {
            "buffer" : 0,
            "byteLength" : 84,
            "byteOffset" : 3132,
            "target" : 34963
        },
        {
            "buffer" : 0,
            "byteLength" : 624,
            "byteOffset" : 3216,
            "target" : 34962
        },
        {
            "buffer" : 0,
            "byteLength" : 624,
            "byteOffset" : 3840,
            "target" : 34962
        },
        {
            "buffer" : 0,
            "byteLength" : 6,
            "byteOffset" : 4464,
            "target" : 34963
        },
        {
            "buffer" : 0,
            "byteLength" : 48,
            "byteOffset" : 4472,
            "target" : 34962
        },
        {
            "buffer" : 0,
            "byteLength" : 48,
            "byteOffset" : 4520,
            "target" : 34962
        }
    ],
    "buffers" : [
        {
            "byteLength" : 4568,
            "uri" : "obstacle.bin"
        }
    ],
    "materials" : [
        {
            "name" : "Material",
            "pbrMetallicRoughness" : {
                "baseColorFactor" : [
                    0.6400000190734865,
                    0.6400000190734865,
                    0.6400000190734865,
                    1.0
                ],
                "metallicFactor" : 0.0
            }
        },
        {
            "name" : "Material.001",
            "pbrMetallicRoughness" : {
                "baseColorFactor" : [
                    0.003957099153952287,
                    0.20235443416765975,
                    0.0,
                    1.0
                ],
                "metallicFactor" : 0.0
            }
        }
    ],
    "meshes" : [
        {
            "name" : "Cube.004",
            "primitives" : [
                {
                    "attributes" : {
                        "NORMAL" : 2,
                        "POSITION" : 1
                    },
                    "indices" : 0,
                    "material" : 0
                }
            ]
        },
        {
            "name" : "Cube.005",
            "primitives" : [
                {
                    "attributes" : {
                        "NORMAL" : 5,
                        "POSITION" : 4
                    },
                    "indices" : 3,
                    "material" : 0
                }
            ]
        },
        {
            "name" : "Cube",
            "primitives" : [
                {
                    "attributes" : {
                        "NORMAL" : 8,
                        "POSITION" : 7
                    },
                    "indices" : 6,
                    "material" : 1
                }
            ]
        },
        {
            "name" : "Cube.003",
            "primitives" : [
                {
                    "attributes" : {
                        "NORMAL" : 11,
                        "POSITION" : 10
                    },
                    "indices" : 9,
                    "material" : 0
                }
            ]
        },
        {
            "name" : "Plane",
            "primitives" : [
                {
                    "attributes" : {
                        "NORMAL" : 14,
                        "POSITION" : 13
                    },
                    "indices" : 12
                }
            ]
        }
    ],
    "nodes" : [
        {
            "mesh" : 2,
            "name" : "Cube",
            "scale" : [
                2.0204005241394043,
                0.09055584669113159,
                2.0204005241394043
            ],
            "translation" : [
                0.0,
                0.08892765641212463,
                -0.0
            ]
        },
        {
            "mesh" : 3,
            "name" : "Cube.003",
            "rotation" : [
                0.0,
                -0.7071067094802856,
                -0.0,
                0.7071068286895752
            ],
            "scale" : [
                0.0474759079515934,
                0.21186357736587524,
                2.094525098800659
            ],
            "translation" : [
                -0.0024526005145162344,
                0.21832965314388275,
                2.049999952316284
            ]
        },
        {
            "mesh" : 0,
            "name" : "Cube.004",
            "rotation" : [
                0.0,
                -0.7071067094802856,
                -0.0,
                0.7071068286895752
            ],
            "scale" : [
                0.0474759079515934,
                0.21186357736587524,
                2.094525098800659
            ],
            "translation" : [
                -0.0024531001690775156,
                0.21832965314388275,
                -2.049999952316284
            ]
        },
        {
            "mesh" : 1,
            "name" : "Cube.005",
            "rotation" : [
                0.0,
                -0.7071067094802856,
                -0.0,
                0.7071068286895752
            ],
            "scale" : [
                0.15544839203357697,
                0.21186357736587524,
                2.094525098800659
            ],
            "translation" : [
                -0.0024531001690775156,
                0.21832965314388275,
                0.07012292742729187
            ]
        },
        {
            "mesh" : 4,
            "name" : "obj_snap.002",
            "rotation" : [
                0.5000001192092896,
                -0.49999985098838806,
                0.49999988079071045,
                0.5000001192092896
            ],
            "scale" : [
                2.1061971187591553,
                1.0,
                1.0
            ],
            "translation" : [
                -1.9794243574142456,
                0.0,
                -0.006604194641113281
            ]
        },
        {
            "mesh" : 4,
            "name" : "obj_snap.003",
            "rotation" : [
                0.5,
                0.5,
                -0.5000000596046448,
                0.4999999701976776
            ],
            "scale" : [
                2.1061971187591553,
                1.0,
                1.0
            ],
            "translation" : [
                1.9794243574142456,
                0.0,
                -0.006604433059692383
            ]
        }
    ],
    "scene" : 0,
    "scenes" : [
        {
            "name" : "Scene",
            "nodes" : [
                3,
                5,
                4,
                2,
                1,
                0
            ]
        }
    ]
}
