{
    "asset" : {
        "generator" : "Khronos Blender glTF 2.0 I/O",
        "version" : "2.0"
    },
    "scene" : 0,
    "scenes" : [
        {
            "name" : "Scene",
            "nodes" : [
                0,
                1,
                2,
                3,
                4,
                5,
                6
            ]
        }
    ],
    "nodes" : [
        {
            "mesh" : 0,
            "name" : "Cube.005",
            "scale" : [
                2.008345365524292,
                0.30789637565612793,
                0.09231096506118774
            ],
            "translation" : [
                0,
                0.28745293617248535,
                -0.004360883962363005
            ]
        },
        {
            "mesh" : 1,
            "name" : "Cube.006",
            "rotation" : [
                0,
                0.11089985072612762,
                -0.9938316941261292,
                2.4327537325139704e-17
            ],
            "scale" : [
                0.2254878729581833,
                0.020121974870562553,
                1
            ],
            "translation" : [
                0.1612517237663269,
                0.4086315631866455,
                0
            ]
        },
        {
            "mesh" : 2,
            "name" : "obj_snap.001",
            "rotation" : [
                0,
                0.7071068286895752,
                -0.7071068286895752,
                -1.1520234011186403e-07
            ],
            "scale" : [
                2.1061971187591553,
                1,
                1
            ],
            "translation" : [
                0,
                0,
                -1.9860286712646484
            ]
        },
        {
            "mesh" : 3,
            "name" : "obj_snap",
            "rotation" : [
                0.7071068286895752,
                0,
                0,
                0.7071068286895752
            ],
            "scale" : [
                2.1061971187591553,
                1,
                1
            ],
            "translation" : [
                0,
                0,
                1.9728200435638428
            ]
        },
        {
            "mesh" : 4,
            "name" : "Cube.002",
            "scale" : [
                0.0474759079515934,
                0.21186357736587524,
                2.0052130222320557
            ],
            "translation" : [
                2.0475471019744873,
                0.21832965314388275,
                0
            ]
        },
        {
            "mesh" : 5,
            "name" : "Cube.001",
            "scale" : [
                0.0474759079515934,
                0.21186357736587524,
                2.0052130222320557
            ],
            "translation" : [
                -2.052452802658081,
                0.21832965314388275,
                0
            ]
        },
        {
            "mesh" : 6,
            "name" : "Cube",
            "scale" : [
                2.0204005241394043,
                0.09055584669113159,
                2.0204005241394043
            ],
            "translation" : [
                0,
                0.08892765641212463,
                0
            ]
        }
    ],
    "animations" : [
        {
            "channels" : [
                {
                    "sampler" : 0,
                    "target" : {
                        "node" : 1,
                        "path" : "rotation"
                    }
                }
            ],
            "name" : "Cube.006Action",
            "samplers" : [
                {
                    "input" : 23,
                    "interpolation" : "CUBICSPLINE",
                    "output" : 24
                }
            ]
        }
    ],
    "materials" : [
        {
            "name" : "Material",
            "pbrMetallicRoughness" : {
                "baseColorFactor" : [
                    0.800000011920929,
                    0.800000011920929,
                    0.800000011920929,
                    1
                ],
                "metallicFactor" : 0,
                "roughnessFactor" : 0.5
            }
        },
        {
            "name" : "Material.003",
            "pbrMetallicRoughness" : {
                "baseColorFactor" : [
                    0.2215290069580078,
                    0.203819140791893,
                    0.2170211374759674,
                    1
                ],
                "metallicFactor" : 0,
                "roughnessFactor" : 0.5
            }
        },
        {
            "name" : "Material.001",
            "pbrMetallicRoughness" : {
                "baseColorFactor" : [
                    0.0049463738687336445,
                    0.2529430389404297,
                    0,
                    1
                ],
                "metallicFactor" : 0,
                "roughnessFactor" : 0.5
            }
        }
    ],
    "meshes" : [
        {
            "name" : "Cube.007",
            "primitives" : [
                {
                    "attributes" : {
                        "POSITION" : 0,
                        "NORMAL" : 1,
                        "TEXCOORD_0" : 2
                    },
                    "indices" : 3,
                    "material" : 0
                }
            ]
        },
        {
            "name" : "Cube.007",
            "primitives" : [
                {
                    "attributes" : {
                        "POSITION" : 4,
                        "NORMAL" : 5,
                        "TEXCOORD_0" : 6
                    },
                    "indices" : 7,
                    "material" : 1
                }
            ]
        },
        {
            "name" : "Plane.001",
            "primitives" : [
                {
                    "attributes" : {
                        "POSITION" : 8,
                        "NORMAL" : 9
                    },
                    "indices" : 10
                }
            ]
        },
        {
            "name" : "Plane.001",
            "primitives" : [
                {
                    "attributes" : {
                        "POSITION" : 11,
                        "NORMAL" : 12
                    },
                    "indices" : 13
                }
            ]
        },
        {
            "name" : "Cube.007",
            "primitives" : [
                {
                    "attributes" : {
                        "POSITION" : 14,
                        "NORMAL" : 15
                    },
                    "indices" : 16,
                    "material" : 0
                }
            ]
        },
        {
            "name" : "Cube.007",
            "primitives" : [
                {
                    "attributes" : {
                        "POSITION" : 17,
                        "NORMAL" : 18
                    },
                    "indices" : 19,
                    "material" : 0
                }
            ]
        },
        {
            "name" : "Cube.007",
            "primitives" : [
                {
                    "attributes" : {
                        "POSITION" : 20,
                        "NORMAL" : 21
                    },
                    "indices" : 22,
                    "material" : 2
                }
            ]
        }
    ],
    "accessors" : [
        {
            "bufferView" : 0,
            "componentType" : 5126,
            "count" : 24,
            "max" : [
                1,
                0.32349881529808044,
                1
            ],
            "min" : [
                -1,
                -0.3787240982055664,
                -1
            ],
            "type" : "VEC3"
        },
        {
            "bufferView" : 1,
            "componentType" : 5126,
            "count" : 24,
            "type" : "VEC3"
        },
        {
            "bufferView" : 2,
            "componentType" : 5126,
            "count" : 24,
            "type" : "VEC2"
        },
        {
            "bufferView" : 3,
            "componentType" : 5123,
            "count" : 36,
            "type" : "SCALAR"
        },
        {
            "bufferView" : 4,
            "componentType" : 5126,
            "count" : 30,
            "max" : [
                2.321247100830078,
                0.9907814264297485,
                1
            ],
            "min" : [
                -1,
                -1.091148018836975,
                -1.0106099843978882
            ],
            "type" : "VEC3"
        },
        {
            "bufferView" : 5,
            "componentType" : 5126,
            "count" : 30,
            "type" : "VEC3"
        },
        {
            "bufferView" : 6,
            "componentType" : 5126,
            "count" : 30,
            "type" : "VEC2"
        },
        {
            "bufferView" : 7,
            "componentType" : 5123,
            "count" : 54,
            "type" : "SCALAR"
        },
        {
            "bufferView" : 8,
            "componentType" : 5126,
            "count" : 4,
            "max" : [
                1,
                0,
                1
            ],
            "min" : [
                -1,
                0,
                -1
            ],
            "type" : "VEC3"
        },
        {
            "bufferView" : 9,
            "componentType" : 5126,
            "count" : 4,
            "type" : "VEC3"
        },
        {
            "bufferView" : 10,
            "componentType" : 5123,
            "count" : 6,
            "type" : "SCALAR"
        },
        {
            "bufferView" : 11,
            "componentType" : 5126,
            "count" : 4,
            "max" : [
                1,
                0,
                1
            ],
            "min" : [
                -1,
                0,
                -1
            ],
            "type" : "VEC3"
        },
        {
            "bufferView" : 12,
            "componentType" : 5126,
            "count" : 4,
            "type" : "VEC3"
        },
        {
            "bufferView" : 13,
            "componentType" : 5123,
            "count" : 6,
            "type" : "SCALAR"
        },
        {
            "bufferView" : 14,
            "componentType" : 5126,
            "count" : 24,
            "max" : [
                1.0000004768371582,
                1,
                1.0000005960464478
            ],
            "min" : [
                -1.0000003576278687,
                -1,
                -1.0000003576278687
            ],
            "type" : "VEC3"
        },
        {
            "bufferView" : 15,
            "componentType" : 5126,
            "count" : 24,
            "type" : "VEC3"
        },
        {
            "bufferView" : 16,
            "componentType" : 5123,
            "count" : 36,
            "type" : "SCALAR"
        },
        {
            "bufferView" : 17,
            "componentType" : 5126,
            "count" : 24,
            "max" : [
                1.0000004768371582,
                1,
                1.0000005960464478
            ],
            "min" : [
                -1.0000003576278687,
                -1,
                -1.0000003576278687
            ],
            "type" : "VEC3"
        },
        {
            "bufferView" : 18,
            "componentType" : 5126,
            "count" : 24,
            "type" : "VEC3"
        },
        {
            "bufferView" : 19,
            "componentType" : 5123,
            "count" : 36,
            "type" : "SCALAR"
        },
        {
            "bufferView" : 20,
            "componentType" : 5126,
            "count" : 24,
            "max" : [
                1.0000004768371582,
                1,
                1.0000005960464478
            ],
            "min" : [
                -1.0000003576278687,
                -1,
                -1.0000003576278687
            ],
            "type" : "VEC3"
        },
        {
            "bufferView" : 21,
            "componentType" : 5126,
            "count" : 24,
            "type" : "VEC3"
        },
        {
            "bufferView" : 22,
            "componentType" : 5123,
            "count" : 36,
            "type" : "SCALAR"
        },
        {
            "bufferView" : 23,
            "componentType" : 5126,
            "count" : 3,
            "max" : [
                6.25
            ],
            "min" : [
                0.041666666666666664
            ],
            "type" : "SCALAR"
        },
        {
            "bufferView" : 24,
            "componentType" : 5126,
            "count" : 9,
            "type" : "VEC4"
        }
    ],
    "bufferViews" : [
        {
            "buffer" : 0,
            "byteLength" : 288,
            "byteOffset" : 0
        },
        {
            "buffer" : 0,
            "byteLength" : 288,
            "byteOffset" : 288
        },
        {
            "buffer" : 0,
            "byteLength" : 192,
            "byteOffset" : 576
        },
        {
            "buffer" : 0,
            "byteLength" : 72,
            "byteOffset" : 768
        },
        {
            "buffer" : 0,
            "byteLength" : 360,
            "byteOffset" : 840
        },
        {
            "buffer" : 0,
            "byteLength" : 360,
            "byteOffset" : 1200
        },
        {
            "buffer" : 0,
            "byteLength" : 240,
            "byteOffset" : 1560
        },
        {
            "buffer" : 0,
            "byteLength" : 108,
            "byteOffset" : 1800
        },
        {
            "buffer" : 0,
            "byteLength" : 48,
            "byteOffset" : 1908
        },
        {
            "buffer" : 0,
            "byteLength" : 48,
            "byteOffset" : 1956
        },
        {
            "buffer" : 0,
            "byteLength" : 12,
            "byteOffset" : 2004
        },
        {
            "buffer" : 0,
            "byteLength" : 48,
            "byteOffset" : 2016
        },
        {
            "buffer" : 0,
            "byteLength" : 48,
            "byteOffset" : 2064
        },
        {
            "buffer" : 0,
            "byteLength" : 12,
            "byteOffset" : 2112
        },
        {
            "buffer" : 0,
            "byteLength" : 288,
            "byteOffset" : 2124
        },
        {
            "buffer" : 0,
            "byteLength" : 288,
            "byteOffset" : 2412
        },
        {
            "buffer" : 0,
            "byteLength" : 72,
            "byteOffset" : 2700
        },
        {
            "buffer" : 0,
            "byteLength" : 288,
            "byteOffset" : 2772
        },
        {
            "buffer" : 0,
            "byteLength" : 288,
            "byteOffset" : 3060
        },
        {
            "buffer" : 0,
            "byteLength" : 72,
            "byteOffset" : 3348
        },
        {
            "buffer" : 0,
            "byteLength" : 288,
            "byteOffset" : 3420
        },
        {
            "buffer" : 0,
            "byteLength" : 288,
            "byteOffset" : 3708
        },
        {
            "buffer" : 0,
            "byteLength" : 72,
            "byteOffset" : 3996
        },
        {
            "buffer" : 0,
            "byteLength" : 12,
            "byteOffset" : 4068
        },
        {
            "buffer" : 0,
            "byteLength" : 144,
            "byteOffset" : 4080
        }
    ],
    "buffers" : [
        {
            "byteLength" : 4224,
            "uri" : "tilt.bin"
        }
    ]
}
