{
    "accessors" : [
        {
            "bufferView" : 0,
            "componentType" : 5123,
            "count" : 2274,
            "max" : [
                455
            ],
            "min" : [
                0
            ],
            "type" : "SCALAR"
        },
        {
            "bufferView" : 1,
            "componentType" : 5126,
            "count" : 456,
            "max" : [
                2.0508933067321777,
                1.0436750650405884,
                1.6228399276733398
            ],
            "min" : [
                -2.0508933067321777,
                -3.8716883659362793,
                -1.1204109191894531
            ],
            "type" : "VEC3"
        },
        {
            "bufferView" : 2,
            "componentType" : 5126,
            "count" : 456,
            "max" : [
                1.0,
                0.999969482421875,
                1.0
            ],
            "min" : [
                -1.0,
                -0.9928891658782959,
                -1.0
            ],
            "type" : "VEC3"
        },
        {
            "bufferView" : 3,
            "componentType" : 5126,
            "count" : 456,
            "max" : [
                0.9703086614608765,
                0.9626200497150421
            ],
            "min" : [
                0.008777495473623276,
                0.030763447284698486
            ],
            "type" : "VEC2"
        },
        {
            "bufferView" : 4,
            "componentType" : 5121,
            "count" : 36,
            "max" : [
                23
            ],
            "min" : [
                0
            ],
            "type" : "SCALAR"
        },
        {
            "bufferView" : 5,
            "componentType" : 5126,
            "count" : 24,
            "max" : [
                1.0,
                1.0,
                1.0
            ],
            "min" : [
                -1.0,
                -1.0,
                -1.0
            ],
            "type" : "VEC3"
        },
        {
            "bufferView" : 6,
            "componentType" : 5126,
            "count" : 24,
            "max" : [
                1.0,
                1.0,
                1.0
            ],
            "min" : [
                -1.0,
                -1.0,
                -1.0
            ],
            "type" : "VEC3"
        },
        {
            "bufferView" : 7,
            "componentType" : 5121,
            "count" : 36,
            "max" : [
                23
            ],
            "min" : [
                0
            ],
            "type" : "SCALAR"
        },
        {
            "bufferView" : 8,
            "componentType" : 5126,
            "count" : 24,
            "max" : [
                1.0,
                1.0,
                1.0
            ],
            "min" : [
                -1.0,
                -1.0,
                -1.0
            ],
            "type" : "VEC3"
        },
        {
            "bufferView" : 9,
            "componentType" : 5126,
            "count" : 24,
            "max" : [
                1.0,
                1.0,
                1.0
            ],
            "min" : [
                -1.0,
                -1.0,
                -1.0
            ],
            "type" : "VEC3"
        }
    ],
    "asset" : {
        "generator" : "Khronos Blender glTF 2.0 exporter",
        "version" : "2.0"
    },
    "bufferViews" : [
        {
            "buffer" : 0,
            "byteLength" : 4548,
            "byteOffset" : 0,
            "target" : 34963
        },
        {
            "buffer" : 0,
            "byteLength" : 5472,
            "byteOffset" : 4548,
            "target" : 34962
        },
        {
            "buffer" : 0,
            "byteLength" : 5472,
            "byteOffset" : 10020,
            "target" : 34962
        },
        {
            "buffer" : 0,
            "byteLength" : 3648,
            "byteOffset" : 15492,
            "target" : 34962
        },
        {
            "buffer" : 0,
            "byteLength" : 36,
            "byteOffset" : 19140,
            "target" : 34963
        },
        {
            "buffer" : 0,
            "byteLength" : 288,
            "byteOffset" : 19176,
            "target" : 34962
        },
        {
            "buffer" : 0,
            "byteLength" : 288,
            "byteOffset" : 19464,
            "target" : 34962
        },
        {
            "buffer" : 0,
            "byteLength" : 36,
            "byteOffset" : 19752,
            "target" : 34963
        },
        {
            "buffer" : 0,
            "byteLength" : 288,
            "byteOffset" : 19788,
            "target" : 34962
        },
        {
            "buffer" : 0,
            "byteLength" : 288,
            "byteOffset" : 20076,
            "target" : 34962
        }
    ],
    "buffers" : [
        {
            "byteLength" : 20364,
            "uri" : "reol6.bin"
        }
    ],
    "images" : [
        {
            "name" : "bamse",
            "uri" : "bamse.png"
        }
    ],
    "materials" : [
        {
            "name" : "Material.002",
            "pbrMetallicRoughness" : {
                "baseColorFactor" : [
                    0.6400000190734865,
                    0.6400000190734865,
                    0.6400000190734865,
                    1.0
                ],
                "metallicFactor" : 0.0
            }
        },
        {
            "name" : "Material.003",
            "pbrMetallicRoughness" : {
                "baseColorFactor" : [
                    0.471868951199486,
                    0.5851563064032241,
                    0.640000066757203,
                    1.0
                ],
                "metallicFactor" : 0.0
            }
        },
        {
            "name" : "Material.013",
            "pbrMetallicRoughness" : {
                "baseColorFactor" : [
                    0.6400000190734865,
                    0.6400000190734865,
                    0.6400000190734865,
                    1.0
                ],
                "baseColorTexture" : {
                    "index" : 0
                },
                "metallicFactor" : 0.0
            }
        }
    ],
    "meshes" : [
        {
            "name" : "Sphere",
            "primitives" : [
                {
                    "attributes" : {
                        "NORMAL" : 2,
                        "POSITION" : 1,
                        "TEXCOORD_0" : 3
                    },
                    "indices" : 0,
                    "material" : 2
                }
            ]
        },
        {
            "name" : "Cube.003",
            "primitives" : [
                {
                    "attributes" : {
                        "NORMAL" : 6,
                        "POSITION" : 5
                    },
                    "indices" : 4,
                    "material" : 0
                }
            ]
        },
        {
            "name" : "Cube.002",
            "primitives" : [
                {
                    "attributes" : {
                        "NORMAL" : 9,
                        "POSITION" : 8
                    },
                    "indices" : 7,
                    "material" : 1
                }
            ]
        }
    ],
    "nodes" : [
        {
            "mesh" : 2,
            "name" : "Cube",
            "rotation" : [
                0.0,
                1.0,
                -0.0,
                -1.6292068494294654e-07
            ],
            "scale" : [
                3.260376214981079,
                1.8898158073425293,
                0.04652430862188339
            ],
            "translation" : [
                0.02389080822467804,
                1.9064664840698242,
                0.4742003083229065
            ]
        },
        {
            "mesh" : 1,
            "name" : "Cube.001",
            "rotation" : [
                0.0,
                1.0,
                -0.0,
                -1.6292068494294654e-07
            ],
            "scale" : [
                3.2625174522399902,
                0.039571139961481094,
                0.5084541440010071
            ],
            "translation" : [
                0.027793660759925842,
                1.243530511856079,
                0.015503428876399994
            ]
        },
        {
            "mesh" : 1,
            "name" : "Cube.002",
            "rotation" : [
                0.0,
                1.0,
                -0.0,
                -1.6292068494294654e-07
            ],
            "scale" : [
                3.2625174522399902,
                0.039571139961481094,
                0.5084541440010071
            ],
            "translation" : [
                0.027793660759925842,
                2.60906982421875,
                0.015503428876399994
            ]
        },
        {
            "mesh" : 1,
            "name" : "Cube.004",
            "rotation" : [
                0.0,
                1.0,
                -0.0,
                -1.6292068494294654e-07
            ],
            "scale" : [
                3.2625174522399902,
                0.1986238807439804,
                0.5084541440010071
            ],
            "translation" : [
                0.027793660759925842,
                0.20135115087032318,
                0.015503428876399994
            ]
        },
        {
            "mesh" : 0,
            "name" : "Sphere",
            "rotation" : [
                -0.003023049794137478,
                0.9929373860359192,
                0.11573068052530289,
                0.02593500167131424
            ],
            "scale" : [
                0.13509191572666168,
                0.1201101690530777,
                0.12014907598495483
            ],
            "translation" : [
                -1.4436372518539429,
                3.060986280441284,
                0.3006778955459595
            ]
        },
        {
            "mesh" : 0,
            "name" : "Sphere.001",
            "rotation" : [
                -0.006737192627042532,
                -0.9915927648544312,
                -0.11557397246360779,
                0.05780234932899475
            ],
            "scale" : [
                0.13493892550468445,
                0.12011926621198654,
                0.12031179666519165
            ],
            "translation" : [
                -1.1261950731277466,
                3.060986280441284,
                0.02447071671485901
            ]
        },
        {
            "mesh" : 0,
            "name" : "Sphere.002",
            "rotation" : [
                0.0010013430146500468,
                0.9932389259338379,
                0.11576583981513977,
                -0.008591245859861374
            ],
            "scale" : [
                0.13512633740901947,
                0.12010812759399414,
                0.12011238932609558
            ],
            "translation" : [
                -0.7923548221588135,
                3.060986280441284,
                -0.05774801969528198
            ]
        },
        {
            "mesh" : 0,
            "name" : "Sphere.003",
            "rotation" : [
                -0.008754604496061802,
                0.99043208360672,
                0.11543870717287064,
                0.07511119544506073
            ],
            "scale" : [
                0.1348075270652771,
                0.12012706696987152,
                0.1204511970281601
            ],
            "translation" : [
                -0.46904683113098145,
                3.060986280441284,
                0.21710239350795746
            ]
        },
        {
            "mesh" : 0,
            "name" : "Sphere.004",
            "rotation" : [
                -0.0014033569023013115,
                0.9932031035423279,
                0.11576168239116669,
                0.012037616223096848
            ],
            "scale" : [
                0.13512226939201355,
                0.12010836601257324,
                0.12011674046516418
            ],
            "translation" : [
                -0.09965679049491882,
                3.060986280441284,
                0.19511833786964417
            ]
        },
        {
            "mesh" : 0,
            "name" : "Sphere.005",
            "rotation" : [
                -0.008353884331882,
                -0.9906867742538452,
                -0.11546841263771057,
                0.07167315483093262
            ],
            "scale" : [
                0.13483630120754242,
                0.12012536078691483,
                0.12042070180177689
            ],
            "translation" : [
                0.2701353430747986,
                3.060986280441284,
                -0.08098059892654419
            ]
        },
        {
            "mesh" : 0,
            "name" : "Sphere.006",
            "rotation" : [
                -0.004390787333250046,
                -0.9925613403320312,
                -0.11568691581487656,
                0.03767244890332222
            ],
            "scale" : [
                0.13504904508590698,
                0.12011271715164185,
                0.1201946809887886
            ],
            "translation" : [
                0.6484227180480957,
                3.060986280441284,
                -0.11106537282466888
            ]
        },
        {
            "mesh" : 0,
            "name" : "Sphere.007",
            "rotation" : [
                -0.005370539613068104,
                0.9922067523002625,
                0.11564556509256363,
                0.04607607051730156
            ],
            "scale" : [
                0.13500864803791046,
                0.12011512368917465,
                0.12023764848709106
            ],
            "translation" : [
                0.9654669761657715,
                3.060986280441284,
                0.16491425037384033
            ]
        },
        {
            "mesh" : 0,
            "name" : "Sphere.008",
            "rotation" : [
                -0.005370539613068104,
                0.9922067523002625,
                0.11564556509256363,
                0.04607607051730156
            ],
            "scale" : [
                0.13500864803791046,
                0.12011512368917465,
                0.12023764848709106
            ],
            "translation" : [
                1.3395462036132812,
                3.060986280441284,
                0.24027515947818756
            ]
        },
        {
            "mesh" : 0,
            "name" : "Sphere.009",
            "rotation" : [
                -0.004390787333250046,
                -0.9925613403320312,
                -0.11568691581487656,
                0.03767244890332222
            ],
            "scale" : [
                0.13504904508590698,
                0.12011271715164185,
                0.1201946809887886
            ],
            "translation" : [
                1.7550609111785889,
                3.060986280441284,
                -0.03570456802845001
            ]
        },
        {
            "mesh" : 0,
            "name" : "Sphere.010",
            "rotation" : [
                -0.004390787333250046,
                -0.9925613403320312,
                -0.11568691581487656,
                0.03767244890332222
            ],
            "scale" : [
                0.13504904508590698,
                0.12011271715164185,
                0.1201946809887886
            ],
            "translation" : [
                2.123713970184326,
                3.060986280441284,
                -0.08092114329338074
            ]
        },
        {
            "mesh" : 0,
            "name" : "Sphere.011",
            "rotation" : [
                -0.005370539613068104,
                0.9922067523002625,
                0.11564556509256363,
                0.04607607051730156
            ],
            "scale" : [
                0.13500864803791046,
                0.12011512368917465,
                0.12023764848709106
            ],
            "translation" : [
                2.6849446296691895,
                3.060986280441284,
                0.19505846500396729
            ]
        },
        {
            "mesh" : 0,
            "name" : "Sphere.012",
            "rotation" : [
                -0.005370539613068104,
                0.9922067523002625,
                0.11564556509256363,
                0.04607607051730156
            ],
            "scale" : [
                0.13500864803791046,
                0.12011512368917465,
                0.12023764848709106
            ],
            "translation" : [
                -2.229979991912842,
                3.060986280441284,
                0.1950588971376419
            ]
        },
        {
            "mesh" : 0,
            "name" : "Sphere.013",
            "rotation" : [
                -0.004390787333250046,
                -0.9925613403320312,
                -0.11568691581487656,
                0.03767244890332222
            ],
            "scale" : [
                0.13504904508590698,
                0.12011271715164185,
                0.1201946809887886
            ],
            "translation" : [
                -1.8144651651382446,
                3.060986280441284,
                -0.08092078566551208
            ]
        },
        {
            "mesh" : 0,
            "name" : "Sphere.014",
            "rotation" : [
                -0.005370458588004112,
                0.9922067523002625,
                0.11564556509256363,
                0.04607607051730156
            ],
            "scale" : [
                0.22680127620697021,
                0.2268013060092926,
                0.22680124640464783
            ],
            "translation" : [
                -2.157589912414551,
                2.0390920639038086,
                0.04132257401943207
            ]
        },
        {
            "mesh" : 0,
            "name" : "Sphere.015",
            "rotation" : [
                -0.007839805446565151,
                0.9909960627555847,
                0.11550445109605789,
                0.06726197153329849
            ],
            "scale" : [
                0.22680127620697021,
                0.2268013060092926,
                0.22680123150348663
            ],
            "translation" : [
                -0.7884324193000793,
                2.0390920639038086,
                0.04132245481014252
            ]
        },
        {
            "mesh" : 0,
            "name" : "Sphere.016",
            "rotation" : [
                -0.007839805446565151,
                0.9909960627555847,
                0.11550445109605789,
                0.06726197153329849
            ],
            "scale" : [
                0.22680127620697021,
                0.2268013060092926,
                0.22680123150348663
            ],
            "translation" : [
                0.7091407179832458,
                2.0390920639038086,
                0.04132232069969177
            ]
        },
        {
            "mesh" : 0,
            "name" : "Sphere.017",
            "rotation" : [
                -0.007839805446565151,
                0.9909960627555847,
                0.11550445109605789,
                0.06726197153329849
            ],
            "scale" : [
                0.22680127620697021,
                0.2268013060092926,
                0.22680123150348663
            ],
            "translation" : [
                2.2085227966308594,
                2.0390920639038086,
                0.04132218658924103
            ]
        },
        {
            "mesh" : 0,
            "name" : "Sphere.018",
            "rotation" : [
                -0.0013559282524511218,
                -0.9932079911231995,
                -0.11576224863529205,
                0.011629014275968075
            ],
            "scale" : [
                0.16367600858211517,
                0.16367602348327637,
                0.16367599368095398
            ],
            "translation" : [
                1.0558991432189941,
                0.9297606945037842,
                0.041322290897369385
            ]
        },
        {
            "mesh" : 0,
            "name" : "Sphere.019",
            "rotation" : [
                -0.007839693687856197,
                0.9909960031509399,
                0.1155044436454773,
                0.0672621876001358
            ],
            "scale" : [
                0.16367600858211517,
                0.16367602348327637,
                0.16367599368095398
            ],
            "translation" : [
                0.24011150002479553,
                0.9297606945037842,
                0.041322365403175354
            ]
        },
        {
            "mesh" : 0,
            "name" : "Sphere.020",
            "rotation" : [
                -0.01748177595436573,
                0.9818863272666931,
                0.11444268375635147,
                0.14998836815357208
            ],
            "scale" : [
                0.16367600858211517,
                0.16367602348327637,
                0.16367599368095398
            ],
            "translation" : [
                -0.5038869380950928,
                0.9297606945037842,
                0.04132242500782013
            ]
        },
        {
            "mesh" : 0,
            "name" : "Sphere.021",
            "rotation" : [
                -0.008956285193562508,
                -0.9902992844581604,
                -0.11542323976755142,
                0.07684206962585449
            ],
            "scale" : [
                0.16367600858211517,
                0.16367602348327637,
                0.16367599368095398
            ],
            "translation" : [
                -1.3196746110916138,
                0.9297606945037842,
                0.0413224995136261
            ]
        },
        {
            "mesh" : 0,
            "name" : "Sphere.022",
            "rotation" : [
                -0.007839693687856197,
                0.9909960031509399,
                0.1155044436454773,
                0.0672621876001358
            ],
            "scale" : [
                0.16367600858211517,
                0.16367602348327637,
                0.16367599368095398
            ],
            "translation" : [
                1.7938340902328491,
                0.9297606945037842,
                0.04132222384214401
            ]
        },
        {
            "mesh" : 0,
            "name" : "Sphere.023",
            "rotation" : [
                -0.025517379865050316,
                0.9688478708267212,
                0.11292297393083572,
                0.21893197298049927
            ],
            "scale" : [
                0.16367602348327637,
                0.16367602348327637,
                0.16367599368095398
            ],
            "translation" : [
                2.553473472595215,
                0.9297606945037842,
                0.04132215678691864
            ]
        },
        {
            "mesh" : 0,
            "name" : "Sphere.024",
            "rotation" : [
                -0.03283889219164848,
                -0.9524783492088318,
                -0.11101506650447845,
                0.2817484736442566
            ],
            "scale" : [
                0.16367602348327637,
                0.16367602348327637,
                0.16367599368095398
            ],
            "translation" : [
                -2.3940210342407227,
                0.9297606945037842,
                0.04132258892059326
            ]
        }
    ],
    "samplers" : [
        {}
    ],
    "scene" : 0,
    "scenes" : [
        {
            "name" : "Scene",
            "nodes" : [
                28,
                27,
                26,
                25,
                24,
                23,
                22,
                21,
                20,
                19,
                18,
                17,
                16,
                15,
                14,
                13,
                12,
                11,
                10,
                9,
                8,
                7,
                6,
                5,
                4,
                2,
                1,
                3,
                0
            ]
        }
    ],
    "textures" : [
        {
            "sampler" : 0,
            "source" : 0
        }
    ]
}
