{
    "asset" : {
        "generator" : "Khronos Blender glTF 2.0 I/O",
        "version" : "2.0"
    },
    "scene" : 0,
    "scenes" : [
        {
            "name" : "Scene",
            "nodes" : [
                0,
                1,
                2,
                3,
                4,
                5,
                6,
                7,
                8,
                9,
                10
            ]
        }
    ],
    "nodes" : [
        {
            "mesh" : 0,
            "name" : "Text",
            "rotation" : [
                4.1061939555220306e-05,
                0.7078367471694946,
                -0.7063760757446289,
                4.1146849980577826e-05
            ],
            "scale" : [
                0.699999988079071,
                0.699999988079071,
                0.699999988079071
            ],
            "translation" : [
                -0.0014359056949615479,
                2.22067928314209,
                0.399132639169693
            ]
        },
        {
            "mesh" : 1,
            "name" : "Cube.009",
            "rotation" : [
                0,
                0.03792613744735718,
                0,
                0.999280571937561
            ],
            "scale" : [
                0.21563324332237244,
                0.1679396778345108,
                0.3582979440689087
            ],
            "translation" : [
                -0.24200761318206787,
                0.5937985181808472,
                -0.0032510291785001755
            ]
        },
        {
            "mesh" : 2,
            "name" : "Cube.008",
            "rotation" : [
                0,
                0.03792613744735718,
                0,
                0.999280571937561
            ],
            "scale" : [
                0.21563324332237244,
                0.1679396778345108,
                0.3582979440689087
            ],
            "translation" : [
                0.3591462969779968,
                0.5937985181808472,
                -0.04894857108592987
            ]
        },
        {
            "mesh" : 3,
            "name" : "Cube.007",
            "rotation" : [
                0,
                -0.04884636029601097,
                0,
                0.998806357383728
            ],
            "scale" : [
                0.21563322842121124,
                0.1679396778345108,
                0.3582979440689087
            ],
            "translation" : [
                0.360013484954834,
                1.2116358280181885,
                -0.026099801063537598
            ]
        },
        {
            "mesh" : 4,
            "name" : "Cube.006",
            "rotation" : [
                0,
                -0.036560095846652985,
                0,
                0.9993314743041992
            ],
            "scale" : [
                0.21563322842121124,
                0.1679396778345108,
                0.3582979440689087
            ],
            "translation" : [
                -0.24287480115890503,
                1.2116358280181885,
                -0.026099801063537598
            ]
        },
        {
            "mesh" : 5,
            "name" : "Cube.005",
            "rotation" : [
                0,
                -0.05729275196790695,
                0,
                0.9983574151992798
            ],
            "scale" : [
                0.21563322842121124,
                0.1679396778345108,
                0.3582979440689087
            ],
            "translation" : [
                -0.24287480115890503,
                1.8333643674850464,
                -0.026099801063537598
            ]
        },
        {
            "mesh" : 6,
            "name" : "Cube.004",
            "rotation" : [
                0,
                0.034834641963243484,
                0,
                0.999393105506897
            ],
            "scale" : [
                0.21563322842121124,
                0.1679396778345108,
                0.3582979440689087
            ],
            "translation" : [
                0.360013484954834,
                1.8333643674850464,
                -0.026099801063537598
            ]
        },
        {
            "mesh" : 7,
            "name" : "Cube.003",
            "scale" : [
                0.6916396021842957,
                0.03170561045408249,
                0.43580639362335205
            ],
            "translation" : [
                0.003406140021979809,
                1.6474764347076416,
                -0.01876513659954071
            ]
        },
        {
            "mesh" : 8,
            "name" : "Cube.002",
            "scale" : [
                0.6916396021842957,
                0.03170561045408249,
                0.43580639362335205
            ],
            "translation" : [
                0.003406140021979809,
                1.0054006576538086,
                -0.01876513659954071
            ]
        },
        {
            "mesh" : 9,
            "name" : "Cube.001",
            "scale" : [
                0.6916396021842957,
                0.22577792406082153,
                0.43580639362335205
            ],
            "translation" : [
                0.003406140021979809,
                0.20958828926086426,
                -0.01876513659954071
            ]
        },
        {
            "mesh" : 10,
            "name" : "Cube",
            "scale" : [
                0.6916396021842957,
                1.3971651792526245,
                0.037176892161369324
            ],
            "translation" : [
                0.003406140021979809,
                1.3843766450881958,
                0.445961058139801
            ]
        }
    ],
    "materials" : [
        {
            "name" : "Material.004",
            "pbrMetallicRoughness" : {
                "baseColorFactor" : [
                    0.5457153916358948,
                    0.027770116925239563,
                    0.02067854441702366,
                    1
                ],
                "metallicFactor" : 0,
                "roughnessFactor" : 0.5
            }
        },
        {
            "name" : "Material.019",
            "pbrMetallicRoughness" : {
                "baseColorFactor" : [
                    0.8000000715255737,
                    0.11311158537864685,
                    0.08583559095859528,
                    1
                ],
                "metallicFactor" : 0,
                "roughnessFactor" : 0.5
            }
        },
        {
            "name" : "Material.018",
            "pbrMetallicRoughness" : {
                "baseColorFactor" : [
                    0.3226014971733093,
                    0.18150007724761963,
                    0.8000000715255737,
                    1
                ],
                "metallicFactor" : 0,
                "roughnessFactor" : 0.5
            }
        },
        {
            "name" : "Material.017",
            "pbrMetallicRoughness" : {
                "baseColorFactor" : [
                    0.43175214529037476,
                    0.486895889043808,
                    0,
                    1
                ],
                "metallicFactor" : 0,
                "roughnessFactor" : 0.5
            }
        },
        {
            "name" : "Material.016",
            "pbrMetallicRoughness" : {
                "baseColorFactor" : [
                    0.40196800231933594,
                    0.136618509888649,
                    0.08797763288021088,
                    1
                ],
                "metallicFactor" : 0,
                "roughnessFactor" : 0.5
            }
        },
        {
            "name" : "Material.015",
            "pbrMetallicRoughness" : {
                "baseColorFactor" : [
                    0.8000000715255737,
                    0.2469327449798584,
                    0.33700066804885864,
                    1
                ],
                "metallicFactor" : 0,
                "roughnessFactor" : 0.5
            }
        },
        {
            "name" : "Material.014",
            "pbrMetallicRoughness" : {
                "baseColorFactor" : [
                    0.40566688776016235,
                    0.8000000715255737,
                    0.28693994879722595,
                    1
                ],
                "metallicFactor" : 0,
                "roughnessFactor" : 0.5
            }
        },
        {
            "name" : "Material",
            "pbrMetallicRoughness" : {
                "baseColorFactor" : [
                    0.800000011920929,
                    0.800000011920929,
                    0.800000011920929,
                    1
                ],
                "metallicFactor" : 0,
                "roughnessFactor" : 0.5
            }
        },
        {
            "name" : "Material.001",
            "pbrMetallicRoughness" : {
                "baseColorFactor" : [
                    0.6627872586250305,
                    0.7194806933403015,
                    0.9848845601081848,
                    1
                ],
                "metallicFactor" : 0,
                "roughnessFactor" : 0.5
            }
        }
    ],
    "meshes" : [
        {
            "name" : "CUSLIK.001",
            "primitives" : [
                {
                    "attributes" : {
                        "POSITION" : 0,
                        "NORMAL" : 1
                    },
                    "indices" : 2,
                    "material" : 0
                }
            ]
        },
        {
            "name" : "Cube.002",
            "primitives" : [
                {
                    "attributes" : {
                        "POSITION" : 3,
                        "NORMAL" : 4
                    },
                    "indices" : 5,
                    "material" : 1
                }
            ]
        },
        {
            "name" : "Cube.002",
            "primitives" : [
                {
                    "attributes" : {
                        "POSITION" : 6,
                        "NORMAL" : 7
                    },
                    "indices" : 8,
                    "material" : 2
                }
            ]
        },
        {
            "name" : "Cube.002",
            "primitives" : [
                {
                    "attributes" : {
                        "POSITION" : 9,
                        "NORMAL" : 10
                    },
                    "indices" : 11,
                    "material" : 3
                }
            ]
        },
        {
            "name" : "Cube.002",
            "primitives" : [
                {
                    "attributes" : {
                        "POSITION" : 12,
                        "NORMAL" : 13
                    },
                    "indices" : 14,
                    "material" : 4
                }
            ]
        },
        {
            "name" : "Cube.002",
            "primitives" : [
                {
                    "attributes" : {
                        "POSITION" : 15,
                        "NORMAL" : 16
                    },
                    "indices" : 17,
                    "material" : 5
                }
            ]
        },
        {
            "name" : "Cube.002",
            "primitives" : [
                {
                    "attributes" : {
                        "POSITION" : 18,
                        "NORMAL" : 19
                    },
                    "indices" : 20,
                    "material" : 6
                }
            ]
        },
        {
            "name" : "Cube.002",
            "primitives" : [
                {
                    "attributes" : {
                        "POSITION" : 21,
                        "NORMAL" : 22
                    },
                    "indices" : 23,
                    "material" : 7
                }
            ]
        },
        {
            "name" : "Cube.002",
            "primitives" : [
                {
                    "attributes" : {
                        "POSITION" : 24,
                        "NORMAL" : 25
                    },
                    "indices" : 26,
                    "material" : 7
                }
            ]
        },
        {
            "name" : "Cube.002",
            "primitives" : [
                {
                    "attributes" : {
                        "POSITION" : 27,
                        "NORMAL" : 28
                    },
                    "indices" : 29,
                    "material" : 7
                }
            ]
        },
        {
            "name" : "Cube.002",
            "primitives" : [
                {
                    "attributes" : {
                        "POSITION" : 30,
                        "NORMAL" : 31
                    },
                    "indices" : 32,
                    "material" : 8
                }
            ]
        }
    ],
    "accessors" : [
        {
            "bufferView" : 0,
            "componentType" : 5126,
            "count" : 201,
            "max" : [
                0.9260000586509705,
                0,
                0.009000000543892384
            ],
            "min" : [
                -0.8870000243186951,
                0,
                -0.6910000443458557
            ],
            "type" : "VEC3"
        },
        {
            "bufferView" : 1,
            "componentType" : 5126,
            "count" : 201,
            "type" : "VEC3"
        },
        {
            "bufferView" : 2,
            "componentType" : 5123,
            "count" : 405,
            "type" : "SCALAR"
        },
        {
            "bufferView" : 3,
            "componentType" : 5126,
            "count" : 24,
            "max" : [
                1,
                1,
                1
            ],
            "min" : [
                -1,
                -1,
                -1
            ],
            "type" : "VEC3"
        },
        {
            "bufferView" : 4,
            "componentType" : 5126,
            "count" : 24,
            "type" : "VEC3"
        },
        {
            "bufferView" : 5,
            "componentType" : 5123,
            "count" : 36,
            "type" : "SCALAR"
        },
        {
            "bufferView" : 6,
            "componentType" : 5126,
            "count" : 24,
            "max" : [
                1,
                1,
                1
            ],
            "min" : [
                -1,
                -1,
                -1
            ],
            "type" : "VEC3"
        },
        {
            "bufferView" : 7,
            "componentType" : 5126,
            "count" : 24,
            "type" : "VEC3"
        },
        {
            "bufferView" : 8,
            "componentType" : 5123,
            "count" : 36,
            "type" : "SCALAR"
        },
        {
            "bufferView" : 9,
            "componentType" : 5126,
            "count" : 24,
            "max" : [
                1,
                1,
                1
            ],
            "min" : [
                -1,
                -1,
                -1
            ],
            "type" : "VEC3"
        },
        {
            "bufferView" : 10,
            "componentType" : 5126,
            "count" : 24,
            "type" : "VEC3"
        },
        {
            "bufferView" : 11,
            "componentType" : 5123,
            "count" : 36,
            "type" : "SCALAR"
        },
        {
            "bufferView" : 12,
            "componentType" : 5126,
            "count" : 24,
            "max" : [
                1,
                1,
                1
            ],
            "min" : [
                -1,
                -1,
                -1
            ],
            "type" : "VEC3"
        },
        {
            "bufferView" : 13,
            "componentType" : 5126,
            "count" : 24,
            "type" : "VEC3"
        },
        {
            "bufferView" : 14,
            "componentType" : 5123,
            "count" : 36,
            "type" : "SCALAR"
        },
        {
            "bufferView" : 15,
            "componentType" : 5126,
            "count" : 24,
            "max" : [
                1,
                1,
                1
            ],
            "min" : [
                -1,
                -1,
                -1
            ],
            "type" : "VEC3"
        },
        {
            "bufferView" : 16,
            "componentType" : 5126,
            "count" : 24,
            "type" : "VEC3"
        },
        {
            "bufferView" : 17,
            "componentType" : 5123,
            "count" : 36,
            "type" : "SCALAR"
        },
        {
            "bufferView" : 18,
            "componentType" : 5126,
            "count" : 24,
            "max" : [
                1,
                1,
                1
            ],
            "min" : [
                -1,
                -1,
                -1
            ],
            "type" : "VEC3"
        },
        {
            "bufferView" : 19,
            "componentType" : 5126,
            "count" : 24,
            "type" : "VEC3"
        },
        {
            "bufferView" : 20,
            "componentType" : 5123,
            "count" : 36,
            "type" : "SCALAR"
        },
        {
            "bufferView" : 21,
            "componentType" : 5126,
            "count" : 24,
            "max" : [
                1,
                1,
                1
            ],
            "min" : [
                -1,
                -1,
                -1
            ],
            "type" : "VEC3"
        },
        {
            "bufferView" : 22,
            "componentType" : 5126,
            "count" : 24,
            "type" : "VEC3"
        },
        {
            "bufferView" : 23,
            "componentType" : 5123,
            "count" : 36,
            "type" : "SCALAR"
        },
        {
            "bufferView" : 24,
            "componentType" : 5126,
            "count" : 24,
            "max" : [
                1,
                1,
                1
            ],
            "min" : [
                -1,
                -1,
                -1
            ],
            "type" : "VEC3"
        },
        {
            "bufferView" : 25,
            "componentType" : 5126,
            "count" : 24,
            "type" : "VEC3"
        },
        {
            "bufferView" : 26,
            "componentType" : 5123,
            "count" : 36,
            "type" : "SCALAR"
        },
        {
            "bufferView" : 27,
            "componentType" : 5126,
            "count" : 24,
            "max" : [
                1,
                1,
                1
            ],
            "min" : [
                -1,
                -1,
                -1
            ],
            "type" : "VEC3"
        },
        {
            "bufferView" : 28,
            "componentType" : 5126,
            "count" : 24,
            "type" : "VEC3"
        },
        {
            "bufferView" : 29,
            "componentType" : 5123,
            "count" : 36,
            "type" : "SCALAR"
        },
        {
            "bufferView" : 30,
            "componentType" : 5126,
            "count" : 24,
            "max" : [
                1,
                1,
                1
            ],
            "min" : [
                -1,
                -1,
                -1
            ],
            "type" : "VEC3"
        },
        {
            "bufferView" : 31,
            "componentType" : 5126,
            "count" : 24,
            "type" : "VEC3"
        },
        {
            "bufferView" : 32,
            "componentType" : 5123,
            "count" : 36,
            "type" : "SCALAR"
        }
    ],
    "bufferViews" : [
        {
            "buffer" : 0,
            "byteLength" : 2412,
            "byteOffset" : 0
        },
        {
            "buffer" : 0,
            "byteLength" : 2412,
            "byteOffset" : 2412
        },
        {
            "buffer" : 0,
            "byteLength" : 810,
            "byteOffset" : 4824
        },
        {
            "buffer" : 0,
            "byteLength" : 288,
            "byteOffset" : 5636
        },
        {
            "buffer" : 0,
            "byteLength" : 288,
            "byteOffset" : 5924
        },
        {
            "buffer" : 0,
            "byteLength" : 72,
            "byteOffset" : 6212
        },
        {
            "buffer" : 0,
            "byteLength" : 288,
            "byteOffset" : 6284
        },
        {
            "buffer" : 0,
            "byteLength" : 288,
            "byteOffset" : 6572
        },
        {
            "buffer" : 0,
            "byteLength" : 72,
            "byteOffset" : 6860
        },
        {
            "buffer" : 0,
            "byteLength" : 288,
            "byteOffset" : 6932
        },
        {
            "buffer" : 0,
            "byteLength" : 288,
            "byteOffset" : 7220
        },
        {
            "buffer" : 0,
            "byteLength" : 72,
            "byteOffset" : 7508
        },
        {
            "buffer" : 0,
            "byteLength" : 288,
            "byteOffset" : 7580
        },
        {
            "buffer" : 0,
            "byteLength" : 288,
            "byteOffset" : 7868
        },
        {
            "buffer" : 0,
            "byteLength" : 72,
            "byteOffset" : 8156
        },
        {
            "buffer" : 0,
            "byteLength" : 288,
            "byteOffset" : 8228
        },
        {
            "buffer" : 0,
            "byteLength" : 288,
            "byteOffset" : 8516
        },
        {
            "buffer" : 0,
            "byteLength" : 72,
            "byteOffset" : 8804
        },
        {
            "buffer" : 0,
            "byteLength" : 288,
            "byteOffset" : 8876
        },
        {
            "buffer" : 0,
            "byteLength" : 288,
            "byteOffset" : 9164
        },
        {
            "buffer" : 0,
            "byteLength" : 72,
            "byteOffset" : 9452
        },
        {
            "buffer" : 0,
            "byteLength" : 288,
            "byteOffset" : 9524
        },
        {
            "buffer" : 0,
            "byteLength" : 288,
            "byteOffset" : 9812
        },
        {
            "buffer" : 0,
            "byteLength" : 72,
            "byteOffset" : 10100
        },
        {
            "buffer" : 0,
            "byteLength" : 288,
            "byteOffset" : 10172
        },
        {
            "buffer" : 0,
            "byteLength" : 288,
            "byteOffset" : 10460
        },
        {
            "buffer" : 0,
            "byteLength" : 72,
            "byteOffset" : 10748
        },
        {
            "buffer" : 0,
            "byteLength" : 288,
            "byteOffset" : 10820
        },
        {
            "buffer" : 0,
            "byteLength" : 288,
            "byteOffset" : 11108
        },
        {
            "buffer" : 0,
            "byteLength" : 72,
            "byteOffset" : 11396
        },
        {
            "buffer" : 0,
            "byteLength" : 288,
            "byteOffset" : 11468
        },
        {
            "buffer" : 0,
            "byteLength" : 288,
            "byteOffset" : 11756
        },
        {
            "buffer" : 0,
            "byteLength" : 72,
            "byteOffset" : 12044
        }
    ],
    "buffers" : [
        {
            "byteLength" : 12116,
            "uri" : "slik.bin"
        }
    ]
}
