{
    "accessors" : [
        {
            "bufferView" : 0,
            "componentType" : 5123,
            "count" : 6,
            "max" : [
                3
            ],
            "min" : [
                0
            ],
            "type" : "SCALAR"
        },
        {
            "bufferView" : 1,
            "componentType" : 5126,
            "count" : 4,
            "max" : [
                1.1601918935775757,
                1.1601918935775757,
                -0.0
            ],
            "min" : [
                -1.1601918935775757,
                -1.1601918935775757,
                -0.0
            ],
            "type" : "VEC3"
        },
        {
            "bufferView" : 2,
            "componentType" : 5126,
            "count" : 4,
            "max" : [
                0.0,
                -0.0,
                1.0
            ],
            "min" : [
                0.0,
                -0.0,
                1.0
            ],
            "type" : "VEC3"
        },
        {
            "bufferView" : 3,
            "componentType" : 5126,
            "count" : 4,
            "max" : [
                1.0,
                0.0,
                -0.0,
                1.0
            ],
            "min" : [
                1.0,
                0.0,
                -0.0,
                1.0
            ],
            "type" : "VEC4"
        },
        {
            "bufferView" : 4,
            "componentType" : 5126,
            "count" : 4,
            "max" : [
                0.9999000430107117,
                0.9999000199823058
            ],
            "min" : [
                9.998001769417897e-05,
                0.00010001659393310547
            ],
            "type" : "VEC2"
        },
        {
            "bufferView" : 5,
            "componentType" : 5123,
            "count" : 36,
            "max" : [
                23
            ],
            "min" : [
                0
            ],
            "type" : "SCALAR"
        },
        {
            "bufferView" : 6,
            "componentType" : 5126,
            "count" : 24,
            "max" : [
                1.0,
                0.40496933460235596,
                1.0
            ],
            "min" : [
                -1.0,
                -1.028597116470337,
                -1.0
            ],
            "type" : "VEC3"
        },
        {
            "bufferView" : 7,
            "componentType" : 5126,
            "count" : 24,
            "max" : [
                1.0,
                1.0,
                1.0
            ],
            "min" : [
                -1.0,
                -1.0,
                -1.0
            ],
            "type" : "VEC3"
        },
        {
            "bufferView" : 8,
            "componentType" : 5123,
            "count" : 36,
            "max" : [
                23
            ],
            "min" : [
                0
            ],
            "type" : "SCALAR"
        },
        {
            "bufferView" : 9,
            "componentType" : 5126,
            "count" : 24,
            "max" : [
                1.0000004768371582,
                0.3993779420852661,
                1.0000005960464478
            ],
            "min" : [
                -1.0000003576278687,
                -1.0,
                -1.0000003576278687
            ],
            "type" : "VEC3"
        },
        {
            "bufferView" : 10,
            "componentType" : 5126,
            "count" : 24,
            "max" : [
                1.0,
                1.0,
                1.0
            ],
            "min" : [
                -1.0,
                -1.0,
                -1.0
            ],
            "type" : "VEC3"
        },
        {
            "bufferView" : 11,
            "componentType" : 5123,
            "count" : 6,
            "max" : [
                3
            ],
            "min" : [
                0
            ],
            "type" : "SCALAR"
        },
        {
            "bufferView" : 12,
            "componentType" : 5126,
            "count" : 4,
            "max" : [
                1.0,
                1.0,
                1.0
            ],
            "min" : [
                -1.0,
                1.0,
                -1.0
            ],
            "type" : "VEC3"
        },
        {
            "bufferView" : 13,
            "componentType" : 5126,
            "count" : 4,
            "max" : [
                0.0,
                1.0,
                0.0
            ],
            "min" : [
                0.0,
                1.0,
                0.0
            ],
            "type" : "VEC3"
        },
        {
            "bufferView" : 14,
            "componentType" : 5123,
            "count" : 30,
            "max" : [
                19
            ],
            "min" : [
                0
            ],
            "type" : "SCALAR"
        },
        {
            "bufferView" : 15,
            "componentType" : 5126,
            "count" : 20,
            "max" : [
                1.0,
                1.0,
                1.0
            ],
            "min" : [
                -1.0,
                -0.12854892015457153,
                -1.0
            ],
            "type" : "VEC3"
        },
        {
            "bufferView" : 16,
            "componentType" : 5126,
            "count" : 20,
            "max" : [
                1.0,
                0.0,
                1.0
            ],
            "min" : [
                -1.0,
                -1.0,
                -1.0
            ],
            "type" : "VEC3"
        },
        {
            "bufferView" : 17,
            "componentType" : 5123,
            "count" : 36,
            "max" : [
                23
            ],
            "min" : [
                0
            ],
            "type" : "SCALAR"
        },
        {
            "bufferView" : 18,
            "componentType" : 5126,
            "count" : 24,
            "max" : [
                1.0,
                1.0,
                1.0
            ],
            "min" : [
                -1.0,
                -1.0,
                -1.0
            ],
            "type" : "VEC3"
        },
        {
            "bufferView" : 19,
            "componentType" : 5126,
            "count" : 24,
            "max" : [
                1.0,
                1.0,
                1.0
            ],
            "min" : [
                -1.0,
                -1.0,
                -1.0
            ],
            "type" : "VEC3"
        },
        {
            "bufferView" : 20,
            "componentType" : 5123,
            "count" : 576,
            "max" : [
                152
            ],
            "min" : [
                0
            ],
            "type" : "SCALAR"
        },
        {
            "bufferView" : 21,
            "componentType" : 5126,
            "count" : 153,
            "max" : [
                2.8115673065185547,
                0.9157117605209351,
                0.8910056352615356
            ],
            "min" : [
                -2.776383638381958,
                -1.0,
                -0.9999999403953552
            ],
            "type" : "VEC3"
        },
        {
            "bufferView" : 22,
            "componentType" : 5126,
            "count" : 153,
            "max" : [
                0.999725341796875,
                0.999359130859375,
                0.999969482421875
            ],
            "min" : [
                -0.9981078505516052,
                -1.0,
                -1.0
            ],
            "type" : "VEC3"
        },
        {
            "bufferView" : 23,
            "componentType" : 5126,
            "count" : 153,
            "max" : [
                0.9086025953292847,
                0.9984865188598633,
                0.9999988675117493,
                1.0
            ],
            "min" : [
                -0.6750574707984924,
                -0.9999891519546509,
                -0.8208034038543701,
                1.0
            ],
            "type" : "VEC4"
        },
        {
            "bufferView" : 24,
            "componentType" : 5126,
            "count" : 153,
            "max" : [
                1.0,
                1.0
            ],
            "min" : [
                0.0,
                0.0
            ],
            "type" : "VEC2"
        },
        {
            "bufferView" : 25,
            "componentType" : 5126,
            "count" : 153,
            "max" : [
                1.0,
                1.0,
                1.0,
                1.0
            ],
            "min" : [
                1.0,
                1.0,
                1.0,
                1.0
            ],
            "type" : "VEC4"
        },
        {
            "bufferView" : 26,
            "componentType" : 5123,
            "count" : 6,
            "max" : [
                3
            ],
            "min" : [
                0
            ],
            "type" : "SCALAR"
        },
        {
            "bufferView" : 27,
            "componentType" : 5126,
            "count" : 4,
            "max" : [
                1.0,
                0.0,
                1.0
            ],
            "min" : [
                -1.0,
                0.0,
                -1.0
            ],
            "type" : "VEC3"
        },
        {
            "bufferView" : 28,
            "componentType" : 5126,
            "count" : 4,
            "max" : [
                0.0,
                1.0,
                -0.0
            ],
            "min" : [
                0.0,
                1.0,
                -0.0
            ],
            "type" : "VEC3"
        }
    ],
    "asset" : {
        "generator" : "Khronos Blender glTF 2.0 exporter",
        "version" : "2.0"
    },
    "bufferViews" : [
        {
            "buffer" : 0,
            "byteLength" : 12,
            "byteOffset" : 0,
            "target" : 34963
        },
        {
            "buffer" : 0,
            "byteLength" : 48,
            "byteOffset" : 12,
            "target" : 34962
        },
        {
            "buffer" : 0,
            "byteLength" : 48,
            "byteOffset" : 60,
            "target" : 34962
        },
        {
            "buffer" : 0,
            "byteLength" : 64,
            "byteOffset" : 108,
            "target" : 34962
        },
        {
            "buffer" : 0,
            "byteLength" : 32,
            "byteOffset" : 172,
            "target" : 34962
        },
        {
            "buffer" : 0,
            "byteLength" : 72,
            "byteOffset" : 204,
            "target" : 34963
        },
        {
            "buffer" : 0,
            "byteLength" : 288,
            "byteOffset" : 276,
            "target" : 34962
        },
        {
            "buffer" : 0,
            "byteLength" : 288,
            "byteOffset" : 564,
            "target" : 34962
        },
        {
            "buffer" : 0,
            "byteLength" : 72,
            "byteOffset" : 852,
            "target" : 34963
        },
        {
            "buffer" : 0,
            "byteLength" : 288,
            "byteOffset" : 924,
            "target" : 34962
        },
        {
            "buffer" : 0,
            "byteLength" : 288,
            "byteOffset" : 1212,
            "target" : 34962
        },
        {
            "buffer" : 0,
            "byteLength" : 12,
            "byteOffset" : 1500,
            "target" : 34963
        },
        {
            "buffer" : 0,
            "byteLength" : 48,
            "byteOffset" : 1512,
            "target" : 34962
        },
        {
            "buffer" : 0,
            "byteLength" : 48,
            "byteOffset" : 1560,
            "target" : 34962
        },
        {
            "buffer" : 0,
            "byteLength" : 60,
            "byteOffset" : 1608,
            "target" : 34963
        },
        {
            "buffer" : 0,
            "byteLength" : 240,
            "byteOffset" : 1668,
            "target" : 34962
        },
        {
            "buffer" : 0,
            "byteLength" : 240,
            "byteOffset" : 1908,
            "target" : 34962
        },
        {
            "buffer" : 0,
            "byteLength" : 72,
            "byteOffset" : 2148,
            "target" : 34963
        },
        {
            "buffer" : 0,
            "byteLength" : 288,
            "byteOffset" : 2220,
            "target" : 34962
        },
        {
            "buffer" : 0,
            "byteLength" : 288,
            "byteOffset" : 2508,
            "target" : 34962
        },
        {
            "buffer" : 0,
            "byteLength" : 1152,
            "byteOffset" : 2796,
            "target" : 34963
        },
        {
            "buffer" : 0,
            "byteLength" : 1836,
            "byteOffset" : 3948,
            "target" : 34962
        },
        {
            "buffer" : 0,
            "byteLength" : 1836,
            "byteOffset" : 5784,
            "target" : 34962
        },
        {
            "buffer" : 0,
            "byteLength" : 2448,
            "byteOffset" : 7620,
            "target" : 34962
        },
        {
            "buffer" : 0,
            "byteLength" : 1224,
            "byteOffset" : 10068,
            "target" : 34962
        },
        {
            "buffer" : 0,
            "byteLength" : 2448,
            "byteOffset" : 11292,
            "target" : 34962
        },
        {
            "buffer" : 0,
            "byteLength" : 12,
            "byteOffset" : 13740,
            "target" : 34963
        },
        {
            "buffer" : 0,
            "byteLength" : 48,
            "byteOffset" : 13752,
            "target" : 34962
        },
        {
            "buffer" : 0,
            "byteLength" : 48,
            "byteOffset" : 13800,
            "target" : 34962
        }
    ],
    "buffers" : [
        {
            "byteLength" : 13848,
            "uri" : "montre_runesten.bin"
        }
    ],
    "images" : [
        {
            "name" : "runestenplakat",
            "uri" : "runestenplakat.png"
        },
        {
            "name" : "montre_runesten_uv-copy",
            "uri" : "montre_runesten_uv-copy.png"
        }
    ],
    "materials" : [
        {
            "name" : "Material",
            "pbrMetallicRoughness" : {
                "baseColorFactor" : [
                    0.1100672499845512,
                    0.03688859994543492,
                    0.00846655679444308,
                    1.0
                ],
                "metallicFactor" : 0.0
            }
        },
        {
            "alphaMode" : "BLEND",
            "name" : "Material.001",
            "pbrMetallicRoughness" : {
                "baseColorFactor" : [
                    0.34540274657909187,
                    0.53295937378644,
                    0.640000066757203,
                    0.49473685026168823
                ],
                "metallicFactor" : 0.0
            }
        },
        {
            "name" : "Material.002",
            "pbrMetallicRoughness" : {
                "baseColorFactor" : [
                    0.30059771985706263,
                    0.0,
                    0.0010193908738999197,
                    1.0
                ],
                "metallicFactor" : 0.0
            }
        },
        {
            "name" : "Material.005",
            "pbrMetallicRoughness" : {
                "baseColorFactor" : [
                    0.6400000190734865,
                    0.6400000190734865,
                    0.6400000190734865,
                    1.0
                ],
                "baseColorTexture" : {
                    "index" : 0
                },
                "metallicFactor" : 0.0
            }
        },
        {
            "name" : "Material.006",
            "pbrMetallicRoughness" : {
                "baseColorFactor" : [
                    0.6400000190734865,
                    0.6400000190734865,
                    0.6400000190734865,
                    1.0
                ],
                "baseColorTexture" : {
                    "index" : 1
                },
                "metallicFactor" : 0.0
            }
        }
    ],
    "meshes" : [
        {
            "name" : "Plane.001",
            "primitives" : [
                {
                    "attributes" : {
                        "NORMAL" : 2,
                        "POSITION" : 1,
                        "TANGENT" : 3,
                        "TEXCOORD_0" : 4
                    },
                    "indices" : 0,
                    "material" : 3
                }
            ]
        },
        {
            "name" : "Cube.001",
            "primitives" : [
                {
                    "attributes" : {
                        "NORMAL" : 7,
                        "POSITION" : 6
                    },
                    "indices" : 5,
                    "material" : 0
                }
            ]
        },
        {
            "name" : "Cube",
            "primitives" : [
                {
                    "attributes" : {
                        "NORMAL" : 10,
                        "POSITION" : 9
                    },
                    "indices" : 8,
                    "material" : 1
                }
            ]
        },
        {
            "name" : "Cube.023",
            "primitives" : [
                {
                    "attributes" : {
                        "NORMAL" : 13,
                        "POSITION" : 12
                    },
                    "indices" : 11,
                    "material" : 2
                },
                {
                    "attributes" : {
                        "NORMAL" : 16,
                        "POSITION" : 15
                    },
                    "indices" : 14,
                    "material" : 0
                }
            ]
        },
        {
            "name" : "Cube.003",
            "primitives" : [
                {
                    "attributes" : {
                        "NORMAL" : 19,
                        "POSITION" : 18
                    },
                    "indices" : 17
                }
            ]
        },
        {
            "name" : "Cube.002",
            "primitives" : [
                {
                    "attributes" : {
                        "COLOR_0" : 25,
                        "NORMAL" : 22,
                        "POSITION" : 21,
                        "TANGENT" : 23,
                        "TEXCOORD_0" : 24
                    },
                    "indices" : 20,
                    "material" : 4
                }
            ]
        },
        {
            "name" : "Plane",
            "primitives" : [
                {
                    "attributes" : {
                        "NORMAL" : 28,
                        "POSITION" : 27
                    },
                    "indices" : 26
                }
            ]
        }
    ],
    "nodes" : [
        {
            "mesh" : 5,
            "name" : "Cube",
            "rotation" : [
                0.0,
                1.0,
                -0.0,
                2.6746596631710418e-05
            ],
            "scale" : [
                0.40951859951019287,
                0.40951859951019287,
                0.40951859951019287
            ],
            "translation" : [
                -0.05449791997671127,
                1.3807578086853027,
                -0.26150941848754883
            ]
        },
        {
            "mesh" : 1,
            "name" : "Cube.001",
            "rotation" : [
                0.0,
                1.0,
                -0.0,
                2.6746594812721014e-05
            ],
            "scale" : [
                2.6763076782226562,
                3.234985113143921,
                0.16006840765476227
            ],
            "translation" : [
                -0.14055787026882172,
                3.339217185974121,
                0.8803831338882446
            ]
        },
        {
            "mesh" : 3,
            "name" : "Cube.006",
            "rotation" : [
                0.0,
                -2.6455853003426455e-05,
                -0.0,
                1.0
            ],
            "scale" : [
                2.6656343936920166,
                0.9432359933853149,
                0.9432359933853149
            ],
            "translation" : [
                -0.14329999685287476,
                0.12050127983093262,
                -0.13503646850585938
            ]
        },
        {
            "mesh" : 4,
            "name" : "front.zone",
            "scale" : [
                2.599256753921509,
                1.0,
                1.0
            ],
            "translation" : [
                -0.14211398363113403,
                1.0350414514541626,
                -2.1427340507507324
            ]
        },
        {
            "mesh" : 2,
            "name" : "glass.001",
            "rotation" : [
                0.0,
                1.0,
                -0.0,
                2.6746591174742207e-05
            ],
            "scale" : [
                2.644881248474121,
                3.2136857509613037,
                0.9432359933853149
            ],
            "translation" : [
                -0.14050695300102234,
                3.352332592010498,
                -0.07626157999038696
            ]
        },
        {
            "mesh" : 0,
            "name" : "Plane",
            "rotation" : [
                0.0,
                1.0,
                -0.0,
                2.674659299373161e-05
            ],
            "scale" : [
                1.132175087928772,
                1.0,
                1.0
            ],
            "translation" : [
                -0.14010770618915558,
                3.0989999771118164,
                0.6956018805503845
            ]
        },
        {
            "mesh" : 6,
            "name" : "snap",
            "rotation" : [
                -1.8912698578787968e-05,
                0.7071068286895752,
                0.7071068286895752,
                1.8912698578787968e-05
            ],
            "translation" : [
                -0.1096133217215538,
                2.960036516189575,
                1.0467360019683838
            ]
        },
        {
            "name" : "Sun",
            "rotation" : [
                0.6894598603248596,
                0.0,
                -0.0,
                0.7243238687515259
            ],
            "scale" : [
                1.0,
                0.9999999403953552,
                0.9999999403953552
            ],
            "translation" : [
                -3.4662516117095947,
                66.245849609375,
                13.794937133789062
            ]
        }
    ],
    "samplers" : [
        {}
    ],
    "scene" : 0,
    "scenes" : [
        {
            "name" : "Scene",
            "nodes" : [
                3,
                0,
                7,
                5,
                6,
                4,
                2,
                1
            ]
        }
    ],
    "textures" : [
        {
            "sampler" : 0,
            "source" : 0
        },
        {
            "sampler" : 0,
            "source" : 1
        }
    ]
}
