<?xml version="1.0" encoding="UTF-8" standalone="no"?>
<!-- Created with Inkscape (http://www.inkscape.org/) -->

<svg
   xmlns:dc="http://purl.org/dc/elements/1.1/"
   xmlns:cc="http://creativecommons.org/ns#"
   xmlns:rdf="http://www.w3.org/1999/02/22-rdf-syntax-ns#"
   xmlns:svg="http://www.w3.org/2000/svg"
   xmlns="http://www.w3.org/2000/svg"
   xmlns:sodipodi="http://sodipodi.sourceforge.net/DTD/sodipodi-0.dtd"
   xmlns:inkscape="http://www.inkscape.org/namespaces/inkscape"
   width="210"
   height="210"
   viewBox="0 0 210 210"
   version="1.1"
   id="svg3719"
   inkscape:version="0.92.3 (2405546, 2018-03-11)"
   sodipodi:docname="drawing.svg">
  <defs
     id="defs3713" />
  <sodipodi:namedview
     id="base"
     pagecolor="#ffffff"
     bordercolor="#666666"
     borderopacity="1.0"
     inkscape:pageopacity="0.0"
     inkscape:pageshadow="2"
     inkscape:zoom="0.7"
     inkscape:cx="481.66522"
     inkscape:cy="324.46114"
     inkscape:document-units="px"
     inkscape:current-layer="layer1"
     showgrid="false"
     inkscape:window-width="1920"
     inkscape:window-height="1017"
     inkscape:window-x="-8"
     inkscape:window-y="-8"
     inkscape:window-maximized="1" />
  <metadata
     id="metadata3716">
    <rdf:RDF>
      <cc:Work
         rdf:about="">
        <dc:format>image/svg+xml</dc:format>
        <dc:type
           rdf:resource="http://purl.org/dc/dcmitype/StillImage" />
        <dc:title></dc:title>
      </cc:Work>
    </rdf:RDF>
  </metadata>
  <g
     inkscape:label="Layer 1"
     inkscape:groupmode="layer"
     id="layer1"
     transform="translate(0,-87)">
    <path
       style="fill:none;stroke:#000000;stroke-width:0.26458332px;stroke-linecap:butt;stroke-linejoin:miter;stroke-opacity:1"
       d="m 70.681547,256.55655 c -24.946429,-51.78274 -26.458333,-15.875 -26.458333,-15.875 0,0 -11.717263,41.19941 -25.324405,6.04762 -13.6071424,-35.15179 5.291667,-81.64286 5.291667,-81.64286 0,0 9.827381,-45.73512 50.648808,-32.50595 40.821426,13.22917 71.059526,1.88988 83.154766,-13.98512 12.09523,-15.875 43.46726,-1.13393 36.66369,20.78869 -6.80358,21.92262 -24.94643,38.1756 -7.18155,82.02084 17.76488,43.84523 -26.83631,52.53869 -44.22322,46.11309 -17.3869,-6.4256 -38.55357,12.09524 -38.55357,12.09524 0,0 -12.095235,12.85119 -19.654759,1.88988 -7.559524,-10.96131 -14.363094,-24.94643 -14.363094,-24.94643 z"
       id="path3721"
       inkscape:connector-curvature="0" />
    <path
       style="fill:none;stroke:#000000;stroke-width:0.26458332px;stroke-linecap:butt;stroke-linejoin:miter;stroke-opacity:1"
       d="M 43.089284,135.22619 C 23.8125,107.63393 24.568452,121.24108 20.032738,125.77679 c -4.535714,4.53572 -17.3869047,2.64583 -13.985119,-5.29167 3.4017857,-7.9375 13.607143,-24.190472 22.678571,-22.678568 9.071428,1.511905 29.104167,22.678568 75.21726,14.741068 46.1131,-7.9375 30.99405,-25.702377 54.0506,-15.874996 23.05654,9.827376 18.52083,15.119046 18.52083,15.119046 v 0.75595"
       id="path3723"
       inkscape:connector-curvature="0" />
  </g>
</svg>
