{
    "accessors" : [
        {
            "bufferView" : 0,
            "componentType" : 5123,
            "count" : 756,
            "max" : [
                383
            ],
            "min" : [
                0
            ],
            "type" : "SCALAR"
        },
        {
            "bufferView" : 1,
            "componentType" : 5126,
            "count" : 384,
            "max" : [
                1.0,
                1.0,
                1.0
            ],
            "min" : [
                -1.0,
                -1.0,
                -1.0
            ],
            "type" : "VEC3"
        },
        {
            "bufferView" : 2,
            "componentType" : 5126,
            "count" : 384,
            "max" : [
                0.9987954497337341,
                1.0,
                0.9987955689430237
            ],
            "min" : [
                -0.9987954497337341,
                -1.0,
                -0.9987954497337341
            ],
            "type" : "VEC3"
        },
        {
            "bufferView" : 3,
            "componentType" : 5121,
            "count" : 36,
            "max" : [
                23
            ],
            "min" : [
                0
            ],
            "type" : "SCALAR"
        },
        {
            "bufferView" : 4,
            "componentType" : 5126,
            "count" : 24,
            "max" : [
                1.0000004768371582,
                1.0,
                1.0000005960464478
            ],
            "min" : [
                -1.0000003576278687,
                -1.0,
                -1.0000003576278687
            ],
            "type" : "VEC3"
        },
        {
            "bufferView" : 5,
            "componentType" : 5126,
            "count" : 24,
            "max" : [
                1.0,
                1.0,
                1.0
            ],
            "min" : [
                -1.0,
                -1.0,
                -1.0
            ],
            "type" : "VEC3"
        },
        {
            "bufferView" : 6,
            "componentType" : 5121,
            "count" : 192,
            "max" : [
                65
            ],
            "min" : [
                0
            ],
            "type" : "SCALAR"
        },
        {
            "bufferView" : 7,
            "componentType" : 5126,
            "count" : 66,
            "max" : [
                0.095020592212677,
                -0.5625996589660645,
                0.09332174807786942
            ],
            "min" : [
                -0.09538011252880096,
                -0.5625996589660645,
                -0.09707896411418915
            ],
            "type" : "VEC3"
        },
        {
            "bufferView" : 8,
            "componentType" : 5126,
            "count" : 66,
            "max" : [
                -2.1295325325354497e-07,
                0.9999999403953552,
                -0.0
            ],
            "min" : [
                -2.1295325325354497e-07,
                0.9999999403953552,
                -0.0
            ],
            "type" : "VEC3"
        },
        {
            "bufferView" : 9,
            "componentType" : 5123,
            "count" : 1212,
            "max" : [
                807
            ],
            "min" : [
                0
            ],
            "type" : "SCALAR"
        },
        {
            "bufferView" : 10,
            "componentType" : 5126,
            "count" : 808,
            "max" : [
                1.0035332441329956,
                0.12214511632919312,
                1.0039076805114746
            ],
            "min" : [
                -1.0035345554351807,
                -0.5911399126052856,
                -0.9682151675224304
            ],
            "type" : "VEC3"
        },
        {
            "bufferView" : 11,
            "componentType" : 5126,
            "count" : 808,
            "max" : [
                1.0,
                0.9940600395202637,
                0.9996988773345947
            ],
            "min" : [
                -1.0,
                -0.1444801688194275,
                -0.999991238117218
            ],
            "type" : "VEC3"
        },
        {
            "bufferView" : 12,
            "componentType" : 5123,
            "count" : 801,
            "max" : [
                404
            ],
            "min" : [
                0
            ],
            "type" : "SCALAR"
        },
        {
            "bufferView" : 13,
            "componentType" : 5126,
            "count" : 405,
            "max" : [
                1.0035319328308105,
                -0.29076120257377625,
                0.9602329730987549
            ],
            "min" : [
                -1.0035345554351807,
                -0.5911399126052856,
                -0.9682151675224304
            ],
            "type" : "VEC3"
        },
        {
            "bufferView" : 14,
            "componentType" : 5126,
            "count" : 405,
            "max" : [
                0.9987976551055908,
                1.0,
                0.9987953305244446
            ],
            "min" : [
                -0.9987967014312744,
                0.0,
                -0.9999998211860657
            ],
            "type" : "VEC3"
        },
        {
            "bufferView" : 15,
            "componentType" : 5121,
            "count" : 6,
            "max" : [
                3
            ],
            "min" : [
                0
            ],
            "type" : "SCALAR"
        },
        {
            "bufferView" : 16,
            "componentType" : 5126,
            "count" : 4,
            "max" : [
                1.0,
                0.0,
                1.0
            ],
            "min" : [
                -1.0,
                0.0,
                -1.0
            ],
            "type" : "VEC3"
        },
        {
            "bufferView" : 17,
            "componentType" : 5126,
            "count" : 4,
            "max" : [
                0.0,
                1.0,
                -0.0
            ],
            "min" : [
                0.0,
                1.0,
                -0.0
            ],
            "type" : "VEC3"
        }
    ],
    "asset" : {
        "generator" : "Khronos Blender glTF 2.0 exporter",
        "version" : "2.0"
    },
    "bufferViews" : [
        {
            "buffer" : 0,
            "byteLength" : 1512,
            "byteOffset" : 0,
            "target" : 34963
        },
        {
            "buffer" : 0,
            "byteLength" : 4608,
            "byteOffset" : 1512,
            "target" : 34962
        },
        {
            "buffer" : 0,
            "byteLength" : 4608,
            "byteOffset" : 6120,
            "target" : 34962
        },
        {
            "buffer" : 0,
            "byteLength" : 36,
            "byteOffset" : 10728,
            "target" : 34963
        },
        {
            "buffer" : 0,
            "byteLength" : 288,
            "byteOffset" : 10764,
            "target" : 34962
        },
        {
            "buffer" : 0,
            "byteLength" : 288,
            "byteOffset" : 11052,
            "target" : 34962
        },
        {
            "buffer" : 0,
            "byteLength" : 192,
            "byteOffset" : 11340,
            "target" : 34963
        },
        {
            "buffer" : 0,
            "byteLength" : 792,
            "byteOffset" : 11532,
            "target" : 34962
        },
        {
            "buffer" : 0,
            "byteLength" : 792,
            "byteOffset" : 12324,
            "target" : 34962
        },
        {
            "buffer" : 0,
            "byteLength" : 2424,
            "byteOffset" : 13116,
            "target" : 34963
        },
        {
            "buffer" : 0,
            "byteLength" : 9696,
            "byteOffset" : 15540,
            "target" : 34962
        },
        {
            "buffer" : 0,
            "byteLength" : 9696,
            "byteOffset" : 25236,
            "target" : 34962
        },
        {
            "buffer" : 0,
            "byteLength" : 1602,
            "byteOffset" : 34932,
            "target" : 34963
        },
        {
            "buffer" : 0,
            "byteLength" : 4860,
            "byteOffset" : 36536,
            "target" : 34962
        },
        {
            "buffer" : 0,
            "byteLength" : 4860,
            "byteOffset" : 41396,
            "target" : 34962
        },
        {
            "buffer" : 0,
            "byteLength" : 6,
            "byteOffset" : 46256,
            "target" : 34963
        },
        {
            "buffer" : 0,
            "byteLength" : 48,
            "byteOffset" : 46264,
            "target" : 34962
        },
        {
            "buffer" : 0,
            "byteLength" : 48,
            "byteOffset" : 46312,
            "target" : 34962
        }
    ],
    "buffers" : [
        {
            "byteLength" : 46360,
            "uri" : "soft_end.bin"
        }
    ],
    "materials" : [
        {
            "name" : "Material",
            "pbrMetallicRoughness" : {
                "baseColorFactor" : [
                    0.6400000190734865,
                    0.6400000190734865,
                    0.6400000190734865,
                    1.0
                ],
                "metallicFactor" : 0.0
            }
        },
        {
            "name" : "Material.001",
            "pbrMetallicRoughness" : {
                "baseColorFactor" : [
                    0.003957099153952287,
                    0.20235443416765975,
                    0.0,
                    1.0
                ],
                "metallicFactor" : 0.0
            }
        },
        {
            "name" : "Material.002",
            "pbrMetallicRoughness" : {
                "baseColorFactor" : [
                    0.0,
                    0.0,
                    0.0,
                    1.0
                ],
                "metallicFactor" : 0.0
            }
        }
    ],
    "meshes" : [
        {
            "name" : "Cylinder.001",
            "primitives" : [
                {
                    "attributes" : {
                        "NORMAL" : 2,
                        "POSITION" : 1
                    },
                    "indices" : 0
                }
            ]
        },
        {
            "name" : "Cube.002",
            "primitives" : [
                {
                    "attributes" : {
                        "NORMAL" : 5,
                        "POSITION" : 4
                    },
                    "indices" : 3,
                    "material" : 0
                }
            ]
        },
        {
            "name" : "Cylinder",
            "primitives" : [
                {
                    "attributes" : {
                        "NORMAL" : 8,
                        "POSITION" : 7
                    },
                    "indices" : 6,
                    "material" : 2
                },
                {
                    "attributes" : {
                        "NORMAL" : 11,
                        "POSITION" : 10
                    },
                    "indices" : 9,
                    "material" : 0
                },
                {
                    "attributes" : {
                        "NORMAL" : 14,
                        "POSITION" : 13
                    },
                    "indices" : 12,
                    "material" : 1
                }
            ]
        },
        {
            "name" : "Plane",
            "primitives" : [
                {
                    "attributes" : {
                        "NORMAL" : 17,
                        "POSITION" : 16
                    },
                    "indices" : 15
                }
            ]
        }
    ],
    "nodes" : [
        {
            "mesh" : 1,
            "name" : "Cube.002",
            "scale" : [
                0.0474759079515934,
                0.21186357736587524,
                2.0052130222320557
            ],
            "translation" : [
                2.0475471019744873,
                0.21832965314388275,
                -0.0
            ]
        },
        {
            "mesh" : 2,
            "name" : "Cylinder",
            "scale" : [
                2.0930440425872803,
                0.5927027463912964,
                2.0930440425872803
            ],
            "translation" : [
                -0.00023125112056732178,
                0.35199519991874695,
                -4.642922431230545e-05
            ]
        },
        {
            "mesh" : 0,
            "name" : "Cylinder.001",
            "scale" : [
                0.19925852119922638,
                0.19925852119922638,
                0.19925852119922638
            ],
            "translation" : [
                -0.0006074905395507812,
                0.2641294598579407,
                -0.003978431224822998
            ]
        },
        {
            "mesh" : 3,
            "name" : "obj_snap.001",
            "rotation" : [
                -1.1520235432271875e-07,
                0.7071068286895752,
                -0.7071068286895752,
                -1.1520234011186403e-07
            ],
            "scale" : [
                2.1061971187591553,
                1.0,
                1.0
            ],
            "translation" : [
                0.0,
                0.0,
                -1.9860286712646484
            ]
        }
    ],
    "scene" : 0,
    "scenes" : [
        {
            "name" : "Scene",
            "nodes" : [
                2,
                1,
                3,
                0
            ]
        }
    ]
}
