{
    "asset" : {
        "generator" : "Khronos Blender glTF 2.0 I/O",
        "version" : "2.0"
    },
    "scene" : 0,
    "scenes" : [
        {
            "name" : "Scene",
            "nodes" : [
                0,
                1,
                2,
                3,
                4,
                5,
                6,
                7
            ]
        }
    ],
    "nodes" : [
        {
            "mesh" : 0,
            "name" : "Cone.001",
            "translation" : [
                0.0046407245099544525,
                1.152083396911621,
                0.13917005062103271
            ]
        },
        {
            "mesh" : 1,
            "name" : "Cone",
            "scale" : [
                0.4574596881866455,
                0.4574596881866455,
                0.4574596881866455
            ],
            "translation" : [
                -0.9396893382072449,
                0.6315104365348816,
                0.14763623476028442
            ]
        },
        {
            "mesh" : 2,
            "name" : "obj_snap.003",
            "rotation" : [
                0,
                0.7071068286895752,
                -0.7071068286895752,
                -1.1520234011186403e-07
            ],
            "scale" : [
                2.1061971187591553,
                1,
                1
            ],
            "translation" : [
                0,
                0,
                -2.044670820236206
            ]
        },
        {
            "mesh" : 2,
            "name" : "obj_snap.002",
            "rotation" : [
                0.7071068286895752,
                0,
                0,
                0.7071068286895752
            ],
            "scale" : [
                2.1061971187591553,
                1,
                1
            ],
            "translation" : [
                0,
                0,
                2.0314624309539795
            ]
        },
        {
            "mesh" : 3,
            "name" : "Cube.002",
            "scale" : [
                0.0474759079515934,
                0.21186357736587524,
                2.0052130222320557
            ],
            "translation" : [
                2.0475471019744873,
                0.21832965314388275,
                0
            ]
        },
        {
            "mesh" : 4,
            "name" : "Cube.001",
            "scale" : [
                0.0474759079515934,
                0.21186357736587524,
                2.0052130222320557
            ],
            "translation" : [
                -2.052452802658081,
                0.21832965314388275,
                0
            ]
        },
        {
            "mesh" : 5,
            "name" : "Cube",
            "scale" : [
                2.0204005241394043,
                0.09055584669113159,
                2.0204005241394043
            ],
            "translation" : [
                0,
                0.08892765641212463,
                0
            ]
        },
        {
            "mesh" : 6,
            "name" : "Cone.002",
            "scale" : [
                0.4574596881866455,
                0.4574596881866455,
                0.4574596881866455
            ],
            "translation" : [
                0.9514358639717102,
                0.591712236404419,
                0.14762577414512634
            ]
        }
    ],
    "materials" : [
        {
            "name" : "Material.002",
            "pbrMetallicRoughness" : {
                "baseColorFactor" : [
                    0.029263895004987717,
                    0.025361573323607445,
                    0.3831706941127777,
                    1
                ],
                "metallicFactor" : 0,
                "roughnessFactor" : 0.5
            }
        },
        {
            "name" : "Material.004",
            "pbrMetallicRoughness" : {
                "baseColorFactor" : [
                    0.2967537045478821,
                    0,
                    0.8000000715255737,
                    1
                ],
                "metallicFactor" : 0,
                "roughnessFactor" : 0.5
            }
        },
        {
            "name" : "Material",
            "pbrMetallicRoughness" : {
                "baseColorFactor" : [
                    0.800000011920929,
                    0.800000011920929,
                    0.800000011920929,
                    1
                ],
                "metallicFactor" : 0,
                "roughnessFactor" : 0.5
            }
        },
        {
            "name" : "Material.001",
            "pbrMetallicRoughness" : {
                "baseColorFactor" : [
                    0.0049463738687336445,
                    0.2529430389404297,
                    0,
                    1
                ],
                "metallicFactor" : 0,
                "roughnessFactor" : 0.5
            }
        },
        {
            "name" : "Material.003",
            "pbrMetallicRoughness" : {
                "baseColorFactor" : [
                    0.3470004200935364,
                    0,
                    0.7842283248901367,
                    1
                ],
                "metallicFactor" : 0,
                "roughnessFactor" : 0.5
            }
        }
    ],
    "meshes" : [
        {
            "name" : "Cone.001",
            "primitives" : [
                {
                    "attributes" : {
                        "POSITION" : 0,
                        "NORMAL" : 1
                    },
                    "indices" : 2,
                    "material" : 0
                }
            ]
        },
        {
            "name" : "Cone",
            "primitives" : [
                {
                    "attributes" : {
                        "POSITION" : 3,
                        "NORMAL" : 4
                    },
                    "indices" : 5,
                    "material" : 1
                }
            ]
        },
        {
            "name" : "Plane",
            "primitives" : [
                {
                    "attributes" : {
                        "POSITION" : 6,
                        "NORMAL" : 7
                    },
                    "indices" : 8
                }
            ]
        },
        {
            "name" : "Cube.002",
            "primitives" : [
                {
                    "attributes" : {
                        "POSITION" : 9,
                        "NORMAL" : 10
                    },
                    "indices" : 11,
                    "material" : 2
                }
            ]
        },
        {
            "name" : "Cube.001",
            "primitives" : [
                {
                    "attributes" : {
                        "POSITION" : 12,
                        "NORMAL" : 13
                    },
                    "indices" : 14,
                    "material" : 2
                }
            ]
        },
        {
            "name" : "Cube",
            "primitives" : [
                {
                    "attributes" : {
                        "POSITION" : 15,
                        "NORMAL" : 16
                    },
                    "indices" : 17,
                    "material" : 3
                }
            ]
        },
        {
            "name" : "Cone.002",
            "primitives" : [
                {
                    "attributes" : {
                        "POSITION" : 18,
                        "NORMAL" : 19
                    },
                    "indices" : 20,
                    "material" : 4
                }
            ]
        }
    ],
    "accessors" : [
        {
            "bufferView" : 0,
            "componentType" : 5126,
            "count" : 176,
            "max" : [
                1,
                1,
                0.9613937139511108
            ],
            "min" : [
                -1,
                -1,
                -0.9613935947418213
            ],
            "type" : "VEC3"
        },
        {
            "bufferView" : 1,
            "componentType" : 5126,
            "count" : 176,
            "type" : "VEC3"
        },
        {
            "bufferView" : 2,
            "componentType" : 5123,
            "count" : 282,
            "type" : "SCALAR"
        },
        {
            "bufferView" : 3,
            "componentType" : 5126,
            "count" : 128,
            "max" : [
                1,
                1,
                1
            ],
            "min" : [
                -1,
                -1,
                -1
            ],
            "type" : "VEC3"
        },
        {
            "bufferView" : 4,
            "componentType" : 5126,
            "count" : 128,
            "type" : "VEC3"
        },
        {
            "bufferView" : 5,
            "componentType" : 5123,
            "count" : 186,
            "type" : "SCALAR"
        },
        {
            "bufferView" : 6,
            "componentType" : 5126,
            "count" : 4,
            "max" : [
                1,
                0,
                1
            ],
            "min" : [
                -1,
                0,
                -1
            ],
            "type" : "VEC3"
        },
        {
            "bufferView" : 7,
            "componentType" : 5126,
            "count" : 4,
            "type" : "VEC3"
        },
        {
            "bufferView" : 8,
            "componentType" : 5123,
            "count" : 6,
            "type" : "SCALAR"
        },
        {
            "bufferView" : 9,
            "componentType" : 5126,
            "count" : 24,
            "max" : [
                1.0000004768371582,
                1,
                1.0000005960464478
            ],
            "min" : [
                -1.0000003576278687,
                -1,
                -1.0000003576278687
            ],
            "type" : "VEC3"
        },
        {
            "bufferView" : 10,
            "componentType" : 5126,
            "count" : 24,
            "type" : "VEC3"
        },
        {
            "bufferView" : 11,
            "componentType" : 5123,
            "count" : 36,
            "type" : "SCALAR"
        },
        {
            "bufferView" : 12,
            "componentType" : 5126,
            "count" : 24,
            "max" : [
                1.0000004768371582,
                1,
                1.0000005960464478
            ],
            "min" : [
                -1.0000003576278687,
                -1,
                -1.0000003576278687
            ],
            "type" : "VEC3"
        },
        {
            "bufferView" : 13,
            "componentType" : 5126,
            "count" : 24,
            "type" : "VEC3"
        },
        {
            "bufferView" : 14,
            "componentType" : 5123,
            "count" : 36,
            "type" : "SCALAR"
        },
        {
            "bufferView" : 15,
            "componentType" : 5126,
            "count" : 24,
            "max" : [
                1.0000004768371582,
                1,
                1.0000005960464478
            ],
            "min" : [
                -1.0000003576278687,
                -1,
                -1.0000003576278687
            ],
            "type" : "VEC3"
        },
        {
            "bufferView" : 16,
            "componentType" : 5126,
            "count" : 24,
            "type" : "VEC3"
        },
        {
            "bufferView" : 17,
            "componentType" : 5123,
            "count" : 36,
            "type" : "SCALAR"
        },
        {
            "bufferView" : 18,
            "componentType" : 5126,
            "count" : 128,
            "max" : [
                1,
                1,
                1
            ],
            "min" : [
                -1,
                -1,
                -1
            ],
            "type" : "VEC3"
        },
        {
            "bufferView" : 19,
            "componentType" : 5126,
            "count" : 128,
            "type" : "VEC3"
        },
        {
            "bufferView" : 20,
            "componentType" : 5123,
            "count" : 186,
            "type" : "SCALAR"
        }
    ],
    "bufferViews" : [
        {
            "buffer" : 0,
            "byteLength" : 2112,
            "byteOffset" : 0
        },
        {
            "buffer" : 0,
            "byteLength" : 2112,
            "byteOffset" : 2112
        },
        {
            "buffer" : 0,
            "byteLength" : 564,
            "byteOffset" : 4224
        },
        {
            "buffer" : 0,
            "byteLength" : 1536,
            "byteOffset" : 4788
        },
        {
            "buffer" : 0,
            "byteLength" : 1536,
            "byteOffset" : 6324
        },
        {
            "buffer" : 0,
            "byteLength" : 372,
            "byteOffset" : 7860
        },
        {
            "buffer" : 0,
            "byteLength" : 48,
            "byteOffset" : 8232
        },
        {
            "buffer" : 0,
            "byteLength" : 48,
            "byteOffset" : 8280
        },
        {
            "buffer" : 0,
            "byteLength" : 12,
            "byteOffset" : 8328
        },
        {
            "buffer" : 0,
            "byteLength" : 288,
            "byteOffset" : 8340
        },
        {
            "buffer" : 0,
            "byteLength" : 288,
            "byteOffset" : 8628
        },
        {
            "buffer" : 0,
            "byteLength" : 72,
            "byteOffset" : 8916
        },
        {
            "buffer" : 0,
            "byteLength" : 288,
            "byteOffset" : 8988
        },
        {
            "buffer" : 0,
            "byteLength" : 288,
            "byteOffset" : 9276
        },
        {
            "buffer" : 0,
            "byteLength" : 72,
            "byteOffset" : 9564
        },
        {
            "buffer" : 0,
            "byteLength" : 288,
            "byteOffset" : 9636
        },
        {
            "buffer" : 0,
            "byteLength" : 288,
            "byteOffset" : 9924
        },
        {
            "buffer" : 0,
            "byteLength" : 72,
            "byteOffset" : 10212
        },
        {
            "buffer" : 0,
            "byteLength" : 1536,
            "byteOffset" : 10284
        },
        {
            "buffer" : 0,
            "byteLength" : 1536,
            "byteOffset" : 11820
        },
        {
            "buffer" : 0,
            "byteLength" : 372,
            "byteOffset" : 13356
        }
    ],
    "buffers" : [
        {
            "byteLength" : 13728,
            "uri" : "toblerone2.bin"
        }
    ]
}
