{
    "asset" : {
        "generator" : "Khronos Blender glTF 2.0 I/O",
        "version" : "2.0"
    },
    "scene" : 0,
    "scenes" : [
        {
            "name" : "Scene",
            "nodes" : [
                0,
                1,
                2,
                3,
                4
            ]
        }
    ],
    "nodes" : [
        {
            "mesh" : 0,
            "name" : "carpet.zone",
            "scale" : [
                1.0264424085617065,
                1,
                4.989351272583008
            ],
            "translation" : [
                1.0359593629837036,
                0,
                0
            ]
        },
        {
            "name" : "Lamp",
            "rotation" : [
                0.16907575726509094,
                0.7558802962303162,
                -0.27217137813568115,
                0.570947527885437
            ],
            "translation" : [
                4.076245307922363,
                5.903861999511719,
                -1.0054539442062378
            ]
        },
        {
            "name" : "Camera",
            "rotation" : [
                0.483536034822464,
                0.33687159419059753,
                -0.20870360732078552,
                0.7804827094078064
            ],
            "translation" : [
                7.481131553649902,
                5.34366512298584,
                6.5076398849487305
            ]
        },
        {
            "mesh" : 1,
            "name" : "4chair",
            "rotation" : [
                6.730666063958779e-05,
                -0.7122599482536316,
                6.584763468708843e-05,
                0.7019158005714417
            ],
            "scale" : [
                0.5852031111717224,
                0.5827616453170776,
                0.08997627347707748
            ],
            "translation" : [
                -0.4680468440055847,
                1.5184704065322876,
                2.6081769466400146
            ]
        },
        {
            "mesh" : 2,
            "name" : "front.zone",
            "rotation" : [
                0,
                0,
                -1,
                0
            ],
            "scale" : [
                -1.036149024963379,
                -1,
                -3.2445218563079834
            ],
            "translation" : [
                1.032754898071289,
                1.0595914125442505,
                -0.038955558091402054
            ]
        }
    ],
    "materials" : [
        {
            "name" : "Material.001",
            "pbrMetallicRoughness" : {
                "baseColorFactor" : [
                    0,
                    0,
                    0.215860515832901,
                    1
                ],
                "metallicFactor" : 0,
                "roughnessFactor" : 0.5
            }
        }
    ],
    "meshes" : [
        {
            "name" : "Cube.001",
            "primitives" : [
                {
                    "attributes" : {
                        "POSITION" : 0,
                        "NORMAL" : 1,
                        "TEXCOORD_0" : 2
                    },
                    "indices" : 3
                }
            ]
        },
        {
            "name" : "Cube.029",
            "primitives" : [
                {
                    "attributes" : {
                        "POSITION" : 4,
                        "NORMAL" : 5
                    },
                    "indices" : 6,
                    "material" : 0
                }
            ]
        },
        {
            "name" : "Cube",
            "primitives" : [
                {
                    "attributes" : {
                        "POSITION" : 7,
                        "NORMAL" : 8,
                        "TEXCOORD_0" : 9
                    },
                    "indices" : 10
                }
            ]
        }
    ],
    "accessors" : [
        {
            "bufferView" : 0,
            "componentType" : 5126,
            "count" : 24,
            "max" : [
                1,
                1,
                1
            ],
            "min" : [
                -1,
                -1,
                -1
            ],
            "type" : "VEC3"
        },
        {
            "bufferView" : 1,
            "componentType" : 5126,
            "count" : 24,
            "type" : "VEC3"
        },
        {
            "bufferView" : 2,
            "componentType" : 5126,
            "count" : 24,
            "type" : "VEC2"
        },
        {
            "bufferView" : 3,
            "componentType" : 5123,
            "count" : 36,
            "type" : "SCALAR"
        },
        {
            "bufferView" : 4,
            "componentType" : 5126,
            "count" : 576,
            "max" : [
                1.0047568082809448,
                1.0194530487060547,
                1.153578519821167
            ],
            "min" : [
                -10.089622497558594,
                -2.500420331954956,
                -12.178585052490234
            ],
            "type" : "VEC3"
        },
        {
            "bufferView" : 5,
            "componentType" : 5126,
            "count" : 576,
            "type" : "VEC3"
        },
        {
            "bufferView" : 6,
            "componentType" : 5123,
            "count" : 864,
            "type" : "SCALAR"
        },
        {
            "bufferView" : 7,
            "componentType" : 5126,
            "count" : 24,
            "max" : [
                1,
                1,
                1
            ],
            "min" : [
                -1,
                -1,
                -1
            ],
            "type" : "VEC3"
        },
        {
            "bufferView" : 8,
            "componentType" : 5126,
            "count" : 24,
            "type" : "VEC3"
        },
        {
            "bufferView" : 9,
            "componentType" : 5126,
            "count" : 24,
            "type" : "VEC2"
        },
        {
            "bufferView" : 10,
            "componentType" : 5123,
            "count" : 36,
            "type" : "SCALAR"
        }
    ],
    "bufferViews" : [
        {
            "buffer" : 0,
            "byteLength" : 288,
            "byteOffset" : 0
        },
        {
            "buffer" : 0,
            "byteLength" : 288,
            "byteOffset" : 288
        },
        {
            "buffer" : 0,
            "byteLength" : 192,
            "byteOffset" : 576
        },
        {
            "buffer" : 0,
            "byteLength" : 72,
            "byteOffset" : 768
        },
        {
            "buffer" : 0,
            "byteLength" : 6912,
            "byteOffset" : 840
        },
        {
            "buffer" : 0,
            "byteLength" : 6912,
            "byteOffset" : 7752
        },
        {
            "buffer" : 0,
            "byteLength" : 1728,
            "byteOffset" : 14664
        },
        {
            "buffer" : 0,
            "byteLength" : 288,
            "byteOffset" : 16392
        },
        {
            "buffer" : 0,
            "byteLength" : 288,
            "byteOffset" : 16680
        },
        {
            "buffer" : 0,
            "byteLength" : 192,
            "byteOffset" : 16968
        },
        {
            "buffer" : 0,
            "byteLength" : 72,
            "byteOffset" : 17160
        }
    ],
    "buffers" : [
        {
            "byteLength" : 17232,
            "uri" : "seatrow_blue.bin"
        }
    ]
}
