{
    "asset" : {
        "generator" : "Khronos Blender glTF 2.0 I/O",
        "version" : "2.0"
    },
    "scene" : 0,
    "scenes" : [
        {
            "name" : "Scene",
            "nodes" : [
                0,
                1,
                2,
                3,
                4
            ]
        }
    ],
    "nodes" : [
        {
            "mesh" : 0,
            "name" : "carpet.zone",
            "rotation" : [
                0,
                0,
                -1,
                0
            ],
            "scale" : [
                -1.0243204832077026,
                -1,
                -4.947260856628418
            ],
            "translation" : [
                1.0377761125564575,
                0,
                0
            ]
        },
        {
            "name" : "Lamp",
            "rotation" : [
                0.16907575726509094,
                0.7558802962303162,
                -0.27217137813568115,
                0.570947527885437
            ],
            "translation" : [
                4.076245307922363,
                5.903861999511719,
                -1.0054539442062378
            ]
        },
        {
            "name" : "Camera",
            "rotation" : [
                0.483536034822464,
                0.33687159419059753,
                -0.20870360732078552,
                0.7804827094078064
            ],
            "translation" : [
                7.481131553649902,
                5.34366512298584,
                6.5076398849487305
            ]
        },
        {
            "mesh" : 1,
            "name" : "4chair.001",
            "rotation" : [
                6.730666063958779e-05,
                -0.7122599482536316,
                6.584763468708843e-05,
                0.7019158005714417
            ],
            "scale" : [
                0.5921065211296082,
                0.5896362066268921,
                0.09103768318891525
            ],
            "translation" : [
                -0.5460030436515808,
                1.501434564590454,
                2.6443257331848145
            ]
        },
        {
            "mesh" : 2,
            "name" : "front.zone",
            "rotation" : [
                1,
                0,
                0,
                0
            ],
            "scale" : [
                -1.0307685136795044,
                -1,
                -3.2703604698181152
            ],
            "translation" : [
                1.0496360063552856,
                0,
                -0.04674667492508888
            ]
        }
    ],
    "materials" : [
        {
            "name" : "Material.016",
            "pbrMetallicRoughness" : {
                "baseColorFactor" : [
                    0.973445475101471,
                    0.9473068714141846,
                    0.022173885256052017,
                    1
                ],
                "metallicFactor" : 0,
                "roughnessFactor" : 0.5
            }
        },
        {
            "name" : "Material.015",
            "pbrMetallicRoughness" : {
                "baseColorFactor" : [
                    0.973445475101471,
                    0.9473068714141846,
                    0.022173885256052017,
                    1
                ],
                "metallicFactor" : 0,
                "roughnessFactor" : 0.5
            }
        },
        {
            "name" : "Material.014",
            "pbrMetallicRoughness" : {
                "baseColorFactor" : [
                    0.973445475101471,
                    0.9473068714141846,
                    0.022173885256052017,
                    1
                ],
                "metallicFactor" : 0,
                "roughnessFactor" : 0.5
            }
        }
    ],
    "meshes" : [
        {
            "name" : "Cube.001",
            "primitives" : [
                {
                    "attributes" : {
                        "POSITION" : 0,
                        "NORMAL" : 1,
                        "TEXCOORD_0" : 2
                    },
                    "indices" : 3
                }
            ]
        },
        {
            "name" : "Cube.000",
            "primitives" : [
                {
                    "attributes" : {
                        "POSITION" : 4,
                        "NORMAL" : 5
                    },
                    "indices" : 6,
                    "material" : 0
                },
                {
                    "attributes" : {
                        "POSITION" : 7,
                        "NORMAL" : 8
                    },
                    "indices" : 9,
                    "material" : 1
                },
                {
                    "attributes" : {
                        "POSITION" : 10,
                        "NORMAL" : 11
                    },
                    "indices" : 12,
                    "material" : 2
                }
            ]
        },
        {
            "name" : "Cube",
            "primitives" : [
                {
                    "attributes" : {
                        "POSITION" : 13,
                        "NORMAL" : 14,
                        "TEXCOORD_0" : 15
                    },
                    "indices" : 16
                }
            ]
        }
    ],
    "accessors" : [
        {
            "bufferView" : 0,
            "componentType" : 5126,
            "count" : 24,
            "max" : [
                1,
                1,
                1
            ],
            "min" : [
                -1,
                -1,
                -1
            ],
            "type" : "VEC3"
        },
        {
            "bufferView" : 1,
            "componentType" : 5126,
            "count" : 24,
            "type" : "VEC3"
        },
        {
            "bufferView" : 2,
            "componentType" : 5126,
            "count" : 24,
            "type" : "VEC2"
        },
        {
            "bufferView" : 3,
            "componentType" : 5123,
            "count" : 36,
            "type" : "SCALAR"
        },
        {
            "bufferView" : 4,
            "componentType" : 5126,
            "count" : 288,
            "max" : [
                1.0047568082809448,
                1.0194530487060547,
                1.153578519821167
            ],
            "min" : [
                -10.089622497558594,
                -2.500420331954956,
                -12.178585052490234
            ],
            "type" : "VEC3"
        },
        {
            "bufferView" : 5,
            "componentType" : 5126,
            "count" : 288,
            "type" : "VEC3"
        },
        {
            "bufferView" : 6,
            "componentType" : 5123,
            "count" : 432,
            "type" : "SCALAR"
        },
        {
            "bufferView" : 7,
            "componentType" : 5126,
            "count" : 144,
            "max" : [
                -5.074249744415283,
                1.0194530487060547,
                1.0984808206558228
            ],
            "min" : [
                -7.096901893615723,
                -2.4809672832489014,
                -12.097479820251465
            ],
            "type" : "VEC3"
        },
        {
            "bufferView" : 8,
            "componentType" : 5126,
            "count" : 144,
            "type" : "VEC3"
        },
        {
            "bufferView" : 9,
            "componentType" : 5123,
            "count" : 216,
            "type" : "SCALAR"
        },
        {
            "bufferView" : 10,
            "componentType" : 5126,
            "count" : 144,
            "max" : [
                -2.0067124366760254,
                1.0194530487060547,
                1.0984808206558228
            ],
            "min" : [
                -4.029364585876465,
                -2.4809672832489014,
                -12.097479820251465
            ],
            "type" : "VEC3"
        },
        {
            "bufferView" : 11,
            "componentType" : 5126,
            "count" : 144,
            "type" : "VEC3"
        },
        {
            "bufferView" : 12,
            "componentType" : 5123,
            "count" : 216,
            "type" : "SCALAR"
        },
        {
            "bufferView" : 13,
            "componentType" : 5126,
            "count" : 24,
            "max" : [
                1,
                1,
                1
            ],
            "min" : [
                -1,
                -1,
                -1
            ],
            "type" : "VEC3"
        },
        {
            "bufferView" : 14,
            "componentType" : 5126,
            "count" : 24,
            "type" : "VEC3"
        },
        {
            "bufferView" : 15,
            "componentType" : 5126,
            "count" : 24,
            "type" : "VEC2"
        },
        {
            "bufferView" : 16,
            "componentType" : 5123,
            "count" : 36,
            "type" : "SCALAR"
        }
    ],
    "bufferViews" : [
        {
            "buffer" : 0,
            "byteLength" : 288,
            "byteOffset" : 0
        },
        {
            "buffer" : 0,
            "byteLength" : 288,
            "byteOffset" : 288
        },
        {
            "buffer" : 0,
            "byteLength" : 192,
            "byteOffset" : 576
        },
        {
            "buffer" : 0,
            "byteLength" : 72,
            "byteOffset" : 768
        },
        {
            "buffer" : 0,
            "byteLength" : 3456,
            "byteOffset" : 840
        },
        {
            "buffer" : 0,
            "byteLength" : 3456,
            "byteOffset" : 4296
        },
        {
            "buffer" : 0,
            "byteLength" : 864,
            "byteOffset" : 7752
        },
        {
            "buffer" : 0,
            "byteLength" : 1728,
            "byteOffset" : 8616
        },
        {
            "buffer" : 0,
            "byteLength" : 1728,
            "byteOffset" : 10344
        },
        {
            "buffer" : 0,
            "byteLength" : 432,
            "byteOffset" : 12072
        },
        {
            "buffer" : 0,
            "byteLength" : 1728,
            "byteOffset" : 12504
        },
        {
            "buffer" : 0,
            "byteLength" : 1728,
            "byteOffset" : 14232
        },
        {
            "buffer" : 0,
            "byteLength" : 432,
            "byteOffset" : 15960
        },
        {
            "buffer" : 0,
            "byteLength" : 288,
            "byteOffset" : 16392
        },
        {
            "buffer" : 0,
            "byteLength" : 288,
            "byteOffset" : 16680
        },
        {
            "buffer" : 0,
            "byteLength" : 192,
            "byteOffset" : 16968
        },
        {
            "buffer" : 0,
            "byteLength" : 72,
            "byteOffset" : 17160
        }
    ],
    "buffers" : [
        {
            "byteLength" : 17232,
            "uri" : "seatrow_yellow.bin"
        }
    ]
}
