<?xml version="1.0" ?><svg height="512" id="svg2" version="1.1" width="512" xmlns="http://www.w3.org/2000/svg" xmlns:cc="http://creativecommons.org/ns#" xmlns:dc="http://purl.org/dc/elements/1.1/" xmlns:inkscape="http://www.inkscape.org/namespaces/inkscape" xmlns:rdf="http://www.w3.org/1999/02/22-rdf-syntax-ns#" xmlns:sodipodi="http://sodipodi.sourceforge.net/DTD/sodipodi-0.dtd" xmlns:svg="http://www.w3.org/2000/svg"><defs id="defs4"/><g id="layer1" transform="translate(0,-540.36218)"><g id="g4305"><g id="g4345" transform="translate(28,-40.00001)"><g id="text3777" style="font-size:550px;font-style:normal;font-variant:normal;font-weight:normal;font-stretch:normal;text-align:start;line-height:125%;letter-spacing:0px;word-spacing:0px;writing-mode:lr-tb;text-anchor:start;fill:#222222;fill-opacity:1;stroke:none;font-family:Ubuntu;-inkscape-font-specification:Ubuntu" transform="translate(1.5326008,-0.13956559)"><path d="m 84.9375,708.03125 c -40.28818,83.17346 -71.889506,170.22348 -102.28125,257.4375 24.6041667,0 49.208333,0 73.8125,0 5.422282,-17.69352 11.535754,-35.06954 17.65625,-52.5 27.71875,0 55.4375,0 83.15625,0 6.04844,17.45751 12.25463,34.79962 17.65625,52.5 25.1875,0 50.375,0 75.5625,0 -30.3522,-87.69643 -62.60742,-174.87371 -102.8125,-258.5625 -20.72917,0 -41.45833,0 -62.1875,0 l -0.447214,0.89443 -0.115286,0.23057 z m 33.40625,91.5 c 6.92829,17.95987 13.94263,35.89062 20.375,54.03125 -15.4375,0 -30.875,0 -46.3125,0 7.465195,-20.49001 15.41697,-40.79818 23.15625,-61.1875 0.92708,2.38542 1.85417,4.77083 2.78125,7.15625 z" id="path3834" style="font-size:350px;font-weight:bold;fill:#222222;-inkscape-font-specification:Ubuntu Bold"/><path d="m 336.71875,704.28125 c -24.88024,0.30868 -49.69471,2.67335 -74.09375,7.46875 0,82.80208 0,165.60417 0,248.40625 44.64725,9.47476 91.23285,11.55519 136.34375,4.09375 26.93786,-5.44318 54.5418,-20.47759 64.95056,-47.20289 10.49044,-25.53734 8.41675,-57.6263 -9.32556,-79.32836 -4.44699,-5.28198 -10.9755,-9.65748 -16.21875,-13.1875 23.18101,-19.97439 26.1222,-57.29542 9.625,-82.375 C 437.65861,725.6399 420.13275,715.19487 401.46875,710.5 c -21.00499,-5.94503 -43.04699,-6.44232 -64.75,-6.21875 z m 12.9375,59.9375 c 12.92827,0.64707 29.19994,-1.2115 38.03125,10.3125 5.45704,9.98397 -1.21062,24.57238 -13.09375,25.15625 -13.86324,3.53805 -28.49639,2.21814 -42.75,2.3125 0,-12.44792 0,-24.89583 0,-37.34375 5.93069,-0.37091 11.8735,-0.34694 17.8125,-0.4375 z m 8.25,95.53125 c 13.26678,0.619 29.84812,0.22349 38.4375,12.3125 6.23145,10.9364 1.35785,28.12018 -11.68926,30.93694 -16.76214,6.18765 -35.06164,5.05844 -52.68574,4.00056 -0.33228,-15.74806 -0.0106,-31.5004 -0.125,-47.25 8.6875,0 17.375,0 26.0625,0 z" id="path3836" style="font-size:350px;font-weight:bold;fill:#222222;-inkscape-font-specification:Ubuntu Bold"/></g></g></g></g></svg>